%TF.GenerationSoftware,KiCad,Pcbnew,(6.0.8)*%
%TF.CreationDate,2023-04-29T21:49:54+02:00*%
%TF.ProjectId,Feniks,46656e69-6b73-42e6-9b69-6361645f7063,rev?*%
%TF.SameCoordinates,Original*%
%TF.FileFunction,Profile,NP*%
%FSLAX46Y46*%
G04 Gerber Fmt 4.6, Leading zero omitted, Abs format (unit mm)*
G04 Created by KiCad (PCBNEW (6.0.8)) date 2023-04-29 21:49:54*
%MOMM*%
%LPD*%
G01*
G04 APERTURE LIST*
%TA.AperFunction,Profile*%
%ADD10C,0.050000*%
%TD*%
G04 APERTURE END LIST*
D10*
X95323660Y-115150000D02*
X95323660Y-119650000D01*
X46950000Y-102150000D02*
G75*
G03*
X46950000Y-102150000I-1500000J0D01*
G01*
X131950000Y-102150000D02*
G75*
G03*
X131950000Y-102150000I-1500000J0D01*
G01*
X133350000Y-99650000D02*
X133350000Y-119650000D01*
X76323660Y-120649960D02*
G75*
G03*
X77323660Y-119650000I40J999960D01*
G01*
X77323660Y-119650000D02*
X77323660Y-115150000D01*
X46950000Y-117150000D02*
G75*
G03*
X46950000Y-117150000I-1500000J0D01*
G01*
X78823660Y-113650060D02*
G75*
G03*
X77323660Y-115150000I-60J-1499940D01*
G01*
X42350000Y-119650000D02*
G75*
G03*
X43350000Y-120650000I1000000J0D01*
G01*
X43350000Y-120650000D02*
X76323660Y-120650000D01*
X95323600Y-119650000D02*
G75*
G03*
X96323660Y-120650000I1000100J100D01*
G01*
X131950000Y-117150000D02*
G75*
G03*
X131950000Y-117150000I-1500000J0D01*
G01*
X132350000Y-120650000D02*
G75*
G03*
X133350000Y-119650000I0J1000000D01*
G01*
X133350000Y-99650000D02*
G75*
G03*
X132350000Y-98650000I-1000000J0D01*
G01*
X132350000Y-98650000D02*
X43350000Y-98650000D01*
X78823660Y-113650000D02*
X93823660Y-113650000D01*
X43350000Y-98650000D02*
G75*
G03*
X42350000Y-99650000I0J-1000000D01*
G01*
X95323700Y-115150000D02*
G75*
G03*
X93823660Y-113650000I-1500100J-100D01*
G01*
X132350000Y-120650000D02*
X96323660Y-120650000D01*
X42350000Y-119650000D02*
X42350000Y-99650000D01*
M02*
