%TF.GenerationSoftware,KiCad,Pcbnew,(6.0.8)*%
%TF.CreationDate,2023-04-29T21:49:54+02:00*%
%TF.ProjectId,Feniks,46656e69-6b73-42e6-9b69-6361645f7063,rev?*%
%TF.SameCoordinates,Original*%
%TF.FileFunction,Soldermask,Top*%
%TF.FilePolarity,Negative*%
%FSLAX46Y46*%
G04 Gerber Fmt 4.6, Leading zero omitted, Abs format (unit mm)*
G04 Created by KiCad (PCBNEW (6.0.8)) date 2023-04-29 21:49:54*
%MOMM*%
%LPD*%
G01*
G04 APERTURE LIST*
G04 Aperture macros list*
%AMRoundRect*
0 Rectangle with rounded corners*
0 $1 Rounding radius*
0 $2 $3 $4 $5 $6 $7 $8 $9 X,Y pos of 4 corners*
0 Add a 4 corners polygon primitive as box body*
4,1,4,$2,$3,$4,$5,$6,$7,$8,$9,$2,$3,0*
0 Add four circle primitives for the rounded corners*
1,1,$1+$1,$2,$3*
1,1,$1+$1,$4,$5*
1,1,$1+$1,$6,$7*
1,1,$1+$1,$8,$9*
0 Add four rect primitives between the rounded corners*
20,1,$1+$1,$2,$3,$4,$5,0*
20,1,$1+$1,$4,$5,$6,$7,0*
20,1,$1+$1,$6,$7,$8,$9,0*
20,1,$1+$1,$8,$9,$2,$3,0*%
G04 Aperture macros list end*
%ADD10RoundRect,0.250000X0.337500X0.475000X-0.337500X0.475000X-0.337500X-0.475000X0.337500X-0.475000X0*%
%ADD11RoundRect,0.250000X-0.450000X0.350000X-0.450000X-0.350000X0.450000X-0.350000X0.450000X0.350000X0*%
%ADD12RoundRect,0.250000X-0.475000X0.337500X-0.475000X-0.337500X0.475000X-0.337500X0.475000X0.337500X0*%
%ADD13R,1.800000X2.500000*%
%ADD14RoundRect,0.250000X0.450000X-0.350000X0.450000X0.350000X-0.450000X0.350000X-0.450000X-0.350000X0*%
%ADD15R,0.650000X1.560000*%
%ADD16RoundRect,0.150000X-0.150000X0.825000X-0.150000X-0.825000X0.150000X-0.825000X0.150000X0.825000X0*%
%ADD17R,3.000000X2.290000*%
%ADD18RoundRect,0.250000X0.350000X0.450000X-0.350000X0.450000X-0.350000X-0.450000X0.350000X-0.450000X0*%
%ADD19RoundRect,0.250000X0.450000X-0.325000X0.450000X0.325000X-0.450000X0.325000X-0.450000X-0.325000X0*%
%ADD20R,1.700000X1.700000*%
%ADD21O,1.700000X1.700000*%
%ADD22RoundRect,0.250000X-0.337500X-0.475000X0.337500X-0.475000X0.337500X0.475000X-0.337500X0.475000X0*%
%ADD23R,1.500000X0.900000*%
%ADD24R,0.700000X0.700000*%
%ADD25RoundRect,0.437500X-0.437500X1.812500X-0.437500X-1.812500X0.437500X-1.812500X0.437500X1.812500X0*%
%ADD26RoundRect,0.250000X0.475000X-0.337500X0.475000X0.337500X-0.475000X0.337500X-0.475000X-0.337500X0*%
%ADD27R,1.500000X1.500000*%
%ADD28RoundRect,0.150000X0.150000X-0.825000X0.150000X0.825000X-0.150000X0.825000X-0.150000X-0.825000X0*%
%ADD29RoundRect,0.250000X-0.350000X-0.450000X0.350000X-0.450000X0.350000X0.450000X-0.350000X0.450000X0*%
%ADD30R,1.500000X2.000000*%
%ADD31R,3.800000X2.000000*%
%ADD32C,0.650000*%
%ADD33R,0.600000X1.450000*%
%ADD34R,0.300000X1.450000*%
%ADD35O,1.000000X2.100000*%
%ADD36O,1.000000X1.600000*%
%ADD37R,0.900000X1.500000*%
G04 APERTURE END LIST*
D10*
%TO.C,C3*%
X110420500Y-106375000D03*
X108345500Y-106375000D03*
%TD*%
D11*
%TO.C,R10*%
X113038000Y-104575000D03*
X113038000Y-106575000D03*
%TD*%
D12*
%TO.C,C11*%
X73198000Y-110772500D03*
X73198000Y-112847500D03*
%TD*%
D13*
%TO.C,D3*%
X109583000Y-118675000D03*
X109583000Y-114675000D03*
%TD*%
D10*
%TO.C,C5*%
X110425500Y-104050000D03*
X108350500Y-104050000D03*
%TD*%
D14*
%TO.C,R20*%
X105098000Y-112840000D03*
X105098000Y-110840000D03*
%TD*%
D15*
%TO.C,U2*%
X125563000Y-111680000D03*
X124613000Y-111680000D03*
X123663000Y-111680000D03*
X123663000Y-114380000D03*
X124613000Y-114380000D03*
X125563000Y-114380000D03*
%TD*%
D16*
%TO.C,U5*%
X104788000Y-101300000D03*
X103518000Y-101300000D03*
X102248000Y-101300000D03*
X100978000Y-101300000D03*
X100978000Y-106250000D03*
X102248000Y-106250000D03*
X103518000Y-106250000D03*
X104788000Y-106250000D03*
D17*
X102883000Y-103775000D03*
%TD*%
D18*
%TO.C,R18*%
X121775500Y-112014000D03*
X119775500Y-112014000D03*
%TD*%
D19*
%TO.C,D2*%
X113038000Y-102675000D03*
X113038000Y-100625000D03*
%TD*%
D20*
%TO.C,J2*%
X52578000Y-109738000D03*
D21*
X52578000Y-112278000D03*
X52578000Y-114818000D03*
X52578000Y-117358000D03*
%TD*%
D22*
%TO.C,C7*%
X97170500Y-105100000D03*
X99245500Y-105100000D03*
%TD*%
%TO.C,C12*%
X97170500Y-109190000D03*
X99245500Y-109190000D03*
%TD*%
D14*
%TO.C,R1*%
X70988000Y-112847500D03*
X70988000Y-110847500D03*
%TD*%
%TO.C,R4*%
X55372000Y-114030000D03*
X55372000Y-112030000D03*
%TD*%
D18*
%TO.C,R21*%
X103128000Y-109650000D03*
X101128000Y-109650000D03*
%TD*%
D22*
%TO.C,C4*%
X124456500Y-119126000D03*
X126531500Y-119126000D03*
%TD*%
D23*
%TO.C,U4*%
X95038000Y-112575000D03*
X95038000Y-111075000D03*
X95038000Y-109575000D03*
X95038000Y-108075000D03*
X95038000Y-106575000D03*
X95038000Y-105075000D03*
X95038000Y-103575000D03*
X95038000Y-102075000D03*
X95038000Y-100575000D03*
X77538000Y-100575000D03*
X77538000Y-102075000D03*
X77538000Y-103575000D03*
X77538000Y-105075000D03*
X77538000Y-106575000D03*
X77538000Y-108075000D03*
X77538000Y-109575000D03*
X77538000Y-111075000D03*
X77538000Y-112575000D03*
D24*
X84228000Y-107475000D03*
X85378000Y-107475000D03*
X86428000Y-107475000D03*
X86428000Y-106375000D03*
X85378000Y-106375000D03*
X84228000Y-106375000D03*
X84228000Y-105275000D03*
X86428000Y-105275000D03*
X85378000Y-105275000D03*
%TD*%
D10*
%TO.C,C6*%
X106825500Y-117094000D03*
X104750500Y-117094000D03*
%TD*%
D25*
%TO.C,L1*%
X111238000Y-110200000D03*
X108238000Y-110200000D03*
%TD*%
D11*
%TO.C,R5*%
X125838000Y-107400000D03*
X125838000Y-109400000D03*
%TD*%
D20*
%TO.C,NTC3*%
X61343000Y-118165000D03*
D21*
X61343000Y-115625000D03*
%TD*%
D11*
%TO.C,R6*%
X123763000Y-107400000D03*
X123763000Y-109400000D03*
%TD*%
D20*
%TO.C,NTC2*%
X66713000Y-118165000D03*
D21*
X66713000Y-115625000D03*
%TD*%
D26*
%TO.C,C1*%
X64484000Y-102891500D03*
X64484000Y-100816500D03*
%TD*%
D27*
%TO.C,SW3*%
X49440000Y-105664000D03*
X57240000Y-105664000D03*
%TD*%
D28*
%TO.C,U1*%
X113983000Y-113825000D03*
X115253000Y-113825000D03*
X116523000Y-113825000D03*
X117793000Y-113825000D03*
X117793000Y-108875000D03*
X116523000Y-108875000D03*
X115253000Y-108875000D03*
X113983000Y-108875000D03*
D17*
X115888000Y-111350000D03*
%TD*%
D14*
%TO.C,R15*%
X68834000Y-102854000D03*
X68834000Y-100854000D03*
%TD*%
D15*
%TO.C,U3*%
X119718000Y-118000000D03*
X120668000Y-118000000D03*
X121618000Y-118000000D03*
X121618000Y-115300000D03*
X120668000Y-115300000D03*
X119718000Y-115300000D03*
%TD*%
D29*
%TO.C,R8*%
X97138000Y-101030000D03*
X99138000Y-101030000D03*
%TD*%
D14*
%TO.C,R14*%
X55372000Y-117840000D03*
X55372000Y-115840000D03*
%TD*%
D30*
%TO.C,U6*%
X97688000Y-118700000D03*
X99988000Y-118700000D03*
D31*
X99988000Y-112400000D03*
D30*
X102288000Y-118700000D03*
%TD*%
D22*
%TO.C,C2*%
X119700500Y-107950000D03*
X121775500Y-107950000D03*
%TD*%
D20*
%TO.C,SW1*%
X115847000Y-117348000D03*
D21*
X113307000Y-117348000D03*
%TD*%
D32*
%TO.C,J1*%
X125778000Y-103750000D03*
X119998000Y-103750000D03*
D33*
X126138000Y-105195000D03*
X125338000Y-105195000D03*
D34*
X124138000Y-105195000D03*
X123138000Y-105195000D03*
X122638000Y-105195000D03*
X121638000Y-105195000D03*
D33*
X120438000Y-105195000D03*
X119638000Y-105195000D03*
X119638000Y-105195000D03*
X120438000Y-105195000D03*
D34*
X121138000Y-105195000D03*
X122138000Y-105195000D03*
X123638000Y-105195000D03*
X124638000Y-105195000D03*
D33*
X125338000Y-105195000D03*
X126138000Y-105195000D03*
D35*
X127208000Y-104280000D03*
D36*
X118568000Y-100100000D03*
X127208000Y-100100000D03*
D35*
X118568000Y-104280000D03*
%TD*%
D11*
%TO.C,R16*%
X66684000Y-100854000D03*
X66684000Y-102854000D03*
%TD*%
D27*
%TO.C,SW2*%
X49475000Y-101346000D03*
X57275000Y-101346000D03*
%TD*%
D22*
%TO.C,C8*%
X97170500Y-107150000D03*
X99245500Y-107150000D03*
%TD*%
D12*
%TO.C,C10*%
X67828000Y-110772500D03*
X67828000Y-112847500D03*
%TD*%
D11*
%TO.C,R9*%
X115138000Y-104550000D03*
X115138000Y-106550000D03*
%TD*%
D14*
%TO.C,R3*%
X60248000Y-112810000D03*
X60248000Y-110810000D03*
%TD*%
D12*
%TO.C,C9*%
X62458000Y-110772500D03*
X62458000Y-112847500D03*
%TD*%
D20*
%TO.C,NTC1*%
X72083000Y-118165000D03*
D21*
X72083000Y-115625000D03*
%TD*%
D37*
%TO.C,D4*%
X71463000Y-106400000D03*
X74763000Y-106400000D03*
X74763000Y-101500000D03*
X71463000Y-101500000D03*
%TD*%
D18*
%TO.C,R17*%
X110388000Y-101750000D03*
X108388000Y-101750000D03*
%TD*%
%TO.C,R7*%
X99138000Y-103050000D03*
X97138000Y-103050000D03*
%TD*%
%TO.C,R12*%
X121775500Y-109982000D03*
X119775500Y-109982000D03*
%TD*%
D14*
%TO.C,R2*%
X65618000Y-112847500D03*
X65618000Y-110847500D03*
%TD*%
D19*
%TO.C,D1*%
X115138000Y-102675000D03*
X115138000Y-100625000D03*
%TD*%
D18*
%TO.C,R19*%
X106783000Y-114775000D03*
X104783000Y-114775000D03*
%TD*%
%TO.C,R13*%
X126494000Y-117094000D03*
X124494000Y-117094000D03*
%TD*%
M02*
