%TF.GenerationSoftware,KiCad,Pcbnew,(6.0.8)*%
%TF.CreationDate,2023-04-29T21:49:54+02:00*%
%TF.ProjectId,Feniks,46656e69-6b73-42e6-9b69-6361645f7063,rev?*%
%TF.SameCoordinates,Original*%
%TF.FileFunction,Legend,Bot*%
%TF.FilePolarity,Positive*%
%FSLAX46Y46*%
G04 Gerber Fmt 4.6, Leading zero omitted, Abs format (unit mm)*
G04 Created by KiCad (PCBNEW (6.0.8)) date 2023-04-29 21:49:54*
%MOMM*%
%LPD*%
G01*
G04 APERTURE LIST*
%ADD10C,0.100000*%
%ADD11C,0.500000*%
%ADD12C,0.300000*%
%ADD13C,0.150000*%
%ADD14C,0.600000*%
G04 APERTURE END LIST*
D10*
G36*
X95844028Y-111502084D02*
G01*
X95844028Y-110972917D01*
X95976319Y-110972917D01*
X95976319Y-110708333D01*
X96108611Y-110708333D01*
X96108611Y-110576042D01*
X96240903Y-110576042D01*
X96240903Y-108194792D01*
X96373194Y-108194792D01*
X96373194Y-108062500D01*
X96505486Y-108062500D01*
X96505486Y-107930209D01*
X97034652Y-107930209D01*
X97034652Y-108062500D01*
X97166944Y-108062500D01*
X97166944Y-108194792D01*
X97299236Y-108194792D01*
X97299236Y-110576042D01*
X97431527Y-110576042D01*
X97431527Y-110708333D01*
X97563819Y-110708333D01*
X97563819Y-110972917D01*
X97696111Y-110972917D01*
X97696111Y-111502084D01*
X97563819Y-111502084D01*
X97563819Y-111766667D01*
X97431527Y-111766667D01*
X97431527Y-111898959D01*
X97299236Y-111898959D01*
X97299236Y-112031250D01*
X97166944Y-112031250D01*
X97166944Y-112163542D01*
X96373194Y-112163542D01*
X96373194Y-112031250D01*
X96240903Y-112031250D01*
X96240903Y-111898959D01*
X96108611Y-111898959D01*
X96108611Y-111766667D01*
X95976319Y-111766667D01*
X95976319Y-111634375D01*
X96108611Y-111634375D01*
X96240903Y-111634375D01*
X96240903Y-111766667D01*
X96373194Y-111766667D01*
X96373194Y-111898959D01*
X97166944Y-111898959D01*
X97166944Y-111766667D01*
X97299236Y-111766667D01*
X97299236Y-111634375D01*
X97431527Y-111634375D01*
X97431527Y-110840625D01*
X97299236Y-110840625D01*
X97299236Y-110708333D01*
X97166944Y-110708333D01*
X97166944Y-109517708D01*
X96770069Y-109517708D01*
X96770069Y-109385417D01*
X97166944Y-109385417D01*
X97166944Y-109120834D01*
X96770069Y-109120834D01*
X96770069Y-108988542D01*
X97166944Y-108988542D01*
X97166944Y-108723959D01*
X96770069Y-108723959D01*
X96770069Y-108591667D01*
X97166944Y-108591667D01*
X97166944Y-108327084D01*
X97034652Y-108327084D01*
X97034652Y-108194792D01*
X96505486Y-108194792D01*
X96505486Y-108327084D01*
X96373194Y-108327084D01*
X96373194Y-110708333D01*
X96240903Y-110708333D01*
X96240903Y-110840625D01*
X96108611Y-110840625D01*
X96108611Y-111634375D01*
X95976319Y-111634375D01*
X95976319Y-111502084D01*
X95844028Y-111502084D01*
G37*
X95844028Y-111502084D02*
X95844028Y-110972917D01*
X95976319Y-110972917D01*
X95976319Y-110708333D01*
X96108611Y-110708333D01*
X96108611Y-110576042D01*
X96240903Y-110576042D01*
X96240903Y-108194792D01*
X96373194Y-108194792D01*
X96373194Y-108062500D01*
X96505486Y-108062500D01*
X96505486Y-107930209D01*
X97034652Y-107930209D01*
X97034652Y-108062500D01*
X97166944Y-108062500D01*
X97166944Y-108194792D01*
X97299236Y-108194792D01*
X97299236Y-110576042D01*
X97431527Y-110576042D01*
X97431527Y-110708333D01*
X97563819Y-110708333D01*
X97563819Y-110972917D01*
X97696111Y-110972917D01*
X97696111Y-111502084D01*
X97563819Y-111502084D01*
X97563819Y-111766667D01*
X97431527Y-111766667D01*
X97431527Y-111898959D01*
X97299236Y-111898959D01*
X97299236Y-112031250D01*
X97166944Y-112031250D01*
X97166944Y-112163542D01*
X96373194Y-112163542D01*
X96373194Y-112031250D01*
X96240903Y-112031250D01*
X96240903Y-111898959D01*
X96108611Y-111898959D01*
X96108611Y-111766667D01*
X95976319Y-111766667D01*
X95976319Y-111634375D01*
X96108611Y-111634375D01*
X96240903Y-111634375D01*
X96240903Y-111766667D01*
X96373194Y-111766667D01*
X96373194Y-111898959D01*
X97166944Y-111898959D01*
X97166944Y-111766667D01*
X97299236Y-111766667D01*
X97299236Y-111634375D01*
X97431527Y-111634375D01*
X97431527Y-110840625D01*
X97299236Y-110840625D01*
X97299236Y-110708333D01*
X97166944Y-110708333D01*
X97166944Y-109517708D01*
X96770069Y-109517708D01*
X96770069Y-109385417D01*
X97166944Y-109385417D01*
X97166944Y-109120834D01*
X96770069Y-109120834D01*
X96770069Y-108988542D01*
X97166944Y-108988542D01*
X97166944Y-108723959D01*
X96770069Y-108723959D01*
X96770069Y-108591667D01*
X97166944Y-108591667D01*
X97166944Y-108327084D01*
X97034652Y-108327084D01*
X97034652Y-108194792D01*
X96505486Y-108194792D01*
X96505486Y-108327084D01*
X96373194Y-108327084D01*
X96373194Y-110708333D01*
X96240903Y-110708333D01*
X96240903Y-110840625D01*
X96108611Y-110840625D01*
X96108611Y-111634375D01*
X95976319Y-111634375D01*
X95976319Y-111502084D01*
X95844028Y-111502084D01*
G36*
X97696111Y-110576042D02*
G01*
X97563819Y-110576042D01*
X97563819Y-110179167D01*
X97431527Y-110179167D01*
X97431527Y-109517708D01*
X97563819Y-109517708D01*
X97563819Y-109385417D01*
X97696111Y-109385417D01*
X97696111Y-109253125D01*
X97960694Y-109253125D01*
X97960694Y-109517708D01*
X98092986Y-109517708D01*
X98092986Y-109650000D01*
X98357569Y-109650000D01*
X98357569Y-109517708D01*
X98489861Y-109517708D01*
X98489861Y-109120834D01*
X99019027Y-109120834D01*
X99151319Y-109120834D01*
X99151319Y-108988542D01*
X99283610Y-108988542D01*
X99283610Y-108723959D01*
X99151319Y-108723959D01*
X99151319Y-108988542D01*
X99019027Y-108988542D01*
X99019027Y-109120834D01*
X98489861Y-109120834D01*
X98357569Y-109120834D01*
X98357569Y-108988542D01*
X98489861Y-108988542D01*
X98489861Y-108856250D01*
X98622152Y-108856250D01*
X98622152Y-108591667D01*
X98754444Y-108591667D01*
X98754444Y-108327084D01*
X98886735Y-108327084D01*
X98886735Y-107665625D01*
X98754444Y-107665625D01*
X98754444Y-107268750D01*
X98622152Y-107268750D01*
X98622152Y-107136459D01*
X98489861Y-107136459D01*
X98489861Y-107004167D01*
X98754444Y-107004167D01*
X98754444Y-107136459D01*
X99019027Y-107136459D01*
X99019027Y-107533334D01*
X99283610Y-107533334D01*
X99283610Y-108723959D01*
X99415902Y-108723959D01*
X99415902Y-108459375D01*
X99548194Y-108459375D01*
X99548194Y-107797917D01*
X99415902Y-107797917D01*
X99415902Y-107533334D01*
X99548194Y-107533334D01*
X99548194Y-107665625D01*
X99680485Y-107665625D01*
X99680485Y-107797917D01*
X99812777Y-107797917D01*
X99812777Y-108723959D01*
X99680485Y-108723959D01*
X99680485Y-108856250D01*
X99812777Y-108856250D01*
X99812777Y-108988542D01*
X99680485Y-108988542D01*
X99680485Y-109385417D01*
X99548194Y-109385417D01*
X99548194Y-109650000D01*
X99812777Y-109650000D01*
X99812777Y-109517708D01*
X99945069Y-109517708D01*
X99945069Y-109385417D01*
X100077360Y-109385417D01*
X100077360Y-109120834D01*
X100209652Y-109120834D01*
X100209652Y-109650000D01*
X100077360Y-109650000D01*
X100077360Y-109782292D01*
X99945069Y-109782292D01*
X99945069Y-109914584D01*
X99812777Y-109914584D01*
X99812777Y-110046875D01*
X99548194Y-110046875D01*
X99548194Y-110179167D01*
X99680485Y-110179167D01*
X99680485Y-110311459D01*
X99548194Y-110311459D01*
X99548194Y-110443750D01*
X99415902Y-110443750D01*
X99415902Y-110576042D01*
X99151319Y-110576042D01*
X99151319Y-110708333D01*
X99548194Y-110708333D01*
X99548194Y-110576042D01*
X99812777Y-110576042D01*
X99812777Y-110443750D01*
X99945069Y-110443750D01*
X99945069Y-110311459D01*
X100077360Y-110311459D01*
X100077360Y-110576042D01*
X99945069Y-110576042D01*
X99945069Y-110708333D01*
X99812777Y-110708333D01*
X99812777Y-110972917D01*
X99680485Y-110972917D01*
X99680485Y-111105209D01*
X99548194Y-111105209D01*
X99548194Y-111237500D01*
X99283610Y-111237500D01*
X99283610Y-111369791D01*
X99019027Y-111369791D01*
X99019027Y-111502084D01*
X98886735Y-111502084D01*
X98886735Y-111634375D01*
X98489861Y-111634375D01*
X98489861Y-112031250D01*
X98357569Y-112031250D01*
X98357569Y-112295834D01*
X98225277Y-112295834D01*
X98225277Y-111502084D01*
X98092986Y-111502084D01*
X98092986Y-111237500D01*
X97960694Y-111237500D01*
X97960694Y-111105209D01*
X97828402Y-111105209D01*
X97828402Y-110840625D01*
X99019027Y-110840625D01*
X99151319Y-110840625D01*
X99151319Y-110708333D01*
X99019027Y-110708333D01*
X99019027Y-110840625D01*
X97828402Y-110840625D01*
X97696111Y-110840625D01*
X97696111Y-110576042D01*
G37*
X97696111Y-110576042D02*
X97563819Y-110576042D01*
X97563819Y-110179167D01*
X97431527Y-110179167D01*
X97431527Y-109517708D01*
X97563819Y-109517708D01*
X97563819Y-109385417D01*
X97696111Y-109385417D01*
X97696111Y-109253125D01*
X97960694Y-109253125D01*
X97960694Y-109517708D01*
X98092986Y-109517708D01*
X98092986Y-109650000D01*
X98357569Y-109650000D01*
X98357569Y-109517708D01*
X98489861Y-109517708D01*
X98489861Y-109120834D01*
X99019027Y-109120834D01*
X99151319Y-109120834D01*
X99151319Y-108988542D01*
X99283610Y-108988542D01*
X99283610Y-108723959D01*
X99151319Y-108723959D01*
X99151319Y-108988542D01*
X99019027Y-108988542D01*
X99019027Y-109120834D01*
X98489861Y-109120834D01*
X98357569Y-109120834D01*
X98357569Y-108988542D01*
X98489861Y-108988542D01*
X98489861Y-108856250D01*
X98622152Y-108856250D01*
X98622152Y-108591667D01*
X98754444Y-108591667D01*
X98754444Y-108327084D01*
X98886735Y-108327084D01*
X98886735Y-107665625D01*
X98754444Y-107665625D01*
X98754444Y-107268750D01*
X98622152Y-107268750D01*
X98622152Y-107136459D01*
X98489861Y-107136459D01*
X98489861Y-107004167D01*
X98754444Y-107004167D01*
X98754444Y-107136459D01*
X99019027Y-107136459D01*
X99019027Y-107533334D01*
X99283610Y-107533334D01*
X99283610Y-108723959D01*
X99415902Y-108723959D01*
X99415902Y-108459375D01*
X99548194Y-108459375D01*
X99548194Y-107797917D01*
X99415902Y-107797917D01*
X99415902Y-107533334D01*
X99548194Y-107533334D01*
X99548194Y-107665625D01*
X99680485Y-107665625D01*
X99680485Y-107797917D01*
X99812777Y-107797917D01*
X99812777Y-108723959D01*
X99680485Y-108723959D01*
X99680485Y-108856250D01*
X99812777Y-108856250D01*
X99812777Y-108988542D01*
X99680485Y-108988542D01*
X99680485Y-109385417D01*
X99548194Y-109385417D01*
X99548194Y-109650000D01*
X99812777Y-109650000D01*
X99812777Y-109517708D01*
X99945069Y-109517708D01*
X99945069Y-109385417D01*
X100077360Y-109385417D01*
X100077360Y-109120834D01*
X100209652Y-109120834D01*
X100209652Y-109650000D01*
X100077360Y-109650000D01*
X100077360Y-109782292D01*
X99945069Y-109782292D01*
X99945069Y-109914584D01*
X99812777Y-109914584D01*
X99812777Y-110046875D01*
X99548194Y-110046875D01*
X99548194Y-110179167D01*
X99680485Y-110179167D01*
X99680485Y-110311459D01*
X99548194Y-110311459D01*
X99548194Y-110443750D01*
X99415902Y-110443750D01*
X99415902Y-110576042D01*
X99151319Y-110576042D01*
X99151319Y-110708333D01*
X99548194Y-110708333D01*
X99548194Y-110576042D01*
X99812777Y-110576042D01*
X99812777Y-110443750D01*
X99945069Y-110443750D01*
X99945069Y-110311459D01*
X100077360Y-110311459D01*
X100077360Y-110576042D01*
X99945069Y-110576042D01*
X99945069Y-110708333D01*
X99812777Y-110708333D01*
X99812777Y-110972917D01*
X99680485Y-110972917D01*
X99680485Y-111105209D01*
X99548194Y-111105209D01*
X99548194Y-111237500D01*
X99283610Y-111237500D01*
X99283610Y-111369791D01*
X99019027Y-111369791D01*
X99019027Y-111502084D01*
X98886735Y-111502084D01*
X98886735Y-111634375D01*
X98489861Y-111634375D01*
X98489861Y-112031250D01*
X98357569Y-112031250D01*
X98357569Y-112295834D01*
X98225277Y-112295834D01*
X98225277Y-111502084D01*
X98092986Y-111502084D01*
X98092986Y-111237500D01*
X97960694Y-111237500D01*
X97960694Y-111105209D01*
X97828402Y-111105209D01*
X97828402Y-110840625D01*
X99019027Y-110840625D01*
X99151319Y-110840625D01*
X99151319Y-110708333D01*
X99019027Y-110708333D01*
X99019027Y-110840625D01*
X97828402Y-110840625D01*
X97696111Y-110840625D01*
X97696111Y-110576042D01*
D11*
G36*
X99528923Y-108262917D02*
G01*
X99396631Y-108262917D01*
X99396631Y-108130626D01*
X99528923Y-108130626D01*
X99528923Y-108262917D01*
G37*
X99528923Y-108262917D02*
X99396631Y-108262917D01*
X99396631Y-108130626D01*
X99528923Y-108130626D01*
X99528923Y-108262917D01*
D10*
G36*
X93595069Y-110708333D02*
G01*
X93595069Y-110576042D01*
X93462778Y-110576042D01*
X93462778Y-110311459D01*
X93595069Y-110311459D01*
X93595069Y-110443750D01*
X93727361Y-110443750D01*
X93727361Y-110576042D01*
X93991944Y-110576042D01*
X93991944Y-110708333D01*
X94388819Y-110708333D01*
X94388819Y-110576042D01*
X94124236Y-110576042D01*
X94124236Y-110443750D01*
X93991944Y-110443750D01*
X93991944Y-110311459D01*
X93859653Y-110311459D01*
X93859653Y-110179167D01*
X93991944Y-110179167D01*
X93991944Y-110046875D01*
X93727361Y-110046875D01*
X93727361Y-109914584D01*
X93595069Y-109914584D01*
X93595069Y-109782292D01*
X93462778Y-109782292D01*
X93462778Y-109650000D01*
X93330486Y-109650000D01*
X93330486Y-109120834D01*
X93462778Y-109120834D01*
X93462778Y-109385417D01*
X93595069Y-109385417D01*
X93595069Y-109517708D01*
X93727361Y-109517708D01*
X93727361Y-109650000D01*
X93991944Y-109650000D01*
X93991944Y-109385417D01*
X93859653Y-109385417D01*
X93859653Y-109120834D01*
X94388819Y-109120834D01*
X94521111Y-109120834D01*
X94521111Y-108988542D01*
X94388819Y-108988542D01*
X94388819Y-109120834D01*
X93859653Y-109120834D01*
X93859653Y-108988542D01*
X94256528Y-108988542D01*
X94388819Y-108988542D01*
X94388819Y-108723959D01*
X94256528Y-108723959D01*
X94256528Y-108988542D01*
X93859653Y-108988542D01*
X93727361Y-108988542D01*
X93727361Y-108856250D01*
X93859653Y-108856250D01*
X93859653Y-108723959D01*
X93727361Y-108723959D01*
X93727361Y-108856250D01*
X93595069Y-108856250D01*
X93595069Y-108723959D01*
X93727361Y-108723959D01*
X93727361Y-107797917D01*
X93859653Y-107797917D01*
X93859653Y-107665625D01*
X93991944Y-107665625D01*
X93991944Y-107533334D01*
X94124236Y-107533334D01*
X94124236Y-107797917D01*
X93991944Y-107797917D01*
X93991944Y-108459375D01*
X94124236Y-108459375D01*
X94124236Y-108723959D01*
X94256528Y-108723959D01*
X94256528Y-107533334D01*
X94521111Y-107533334D01*
X94521111Y-107136459D01*
X94785694Y-107136459D01*
X94785694Y-107004167D01*
X95050278Y-107004167D01*
X95050278Y-107136459D01*
X94917986Y-107136459D01*
X94917986Y-107268750D01*
X94785694Y-107268750D01*
X94785694Y-107665625D01*
X94653403Y-107665625D01*
X94653403Y-108327084D01*
X94785694Y-108327084D01*
X94785694Y-108591667D01*
X94917986Y-108591667D01*
X94917986Y-108856250D01*
X95050278Y-108856250D01*
X95050278Y-108988542D01*
X95182569Y-108988542D01*
X95182569Y-109120834D01*
X95050278Y-109120834D01*
X95050278Y-109517708D01*
X95182569Y-109517708D01*
X95182569Y-109650000D01*
X95447152Y-109650000D01*
X95447152Y-109517708D01*
X95579444Y-109517708D01*
X95579444Y-109253125D01*
X95844028Y-109253125D01*
X95844028Y-109385417D01*
X95976319Y-109385417D01*
X95976319Y-109517708D01*
X96108611Y-109517708D01*
X96108611Y-110179167D01*
X95976319Y-110179167D01*
X95976319Y-110576042D01*
X95844028Y-110576042D01*
X95844028Y-110840625D01*
X95711736Y-110840625D01*
X95711736Y-111105209D01*
X95579444Y-111105209D01*
X95579444Y-111237500D01*
X95447152Y-111237500D01*
X95447152Y-111502084D01*
X95314861Y-111502084D01*
X95314861Y-112295834D01*
X95182569Y-112295834D01*
X95182569Y-112031250D01*
X95050278Y-112031250D01*
X95050278Y-111634375D01*
X94653403Y-111634375D01*
X94653403Y-111502084D01*
X94521111Y-111502084D01*
X94521111Y-111369791D01*
X94256528Y-111369791D01*
X94256528Y-111237500D01*
X93991944Y-111237500D01*
X93991944Y-111105209D01*
X93859653Y-111105209D01*
X93859653Y-110972917D01*
X93727361Y-110972917D01*
X93727361Y-110840625D01*
X94388819Y-110840625D01*
X94521111Y-110840625D01*
X94521111Y-110708333D01*
X94388819Y-110708333D01*
X94388819Y-110840625D01*
X93727361Y-110840625D01*
X93727361Y-110708333D01*
X93595069Y-110708333D01*
G37*
X93595069Y-110708333D02*
X93595069Y-110576042D01*
X93462778Y-110576042D01*
X93462778Y-110311459D01*
X93595069Y-110311459D01*
X93595069Y-110443750D01*
X93727361Y-110443750D01*
X93727361Y-110576042D01*
X93991944Y-110576042D01*
X93991944Y-110708333D01*
X94388819Y-110708333D01*
X94388819Y-110576042D01*
X94124236Y-110576042D01*
X94124236Y-110443750D01*
X93991944Y-110443750D01*
X93991944Y-110311459D01*
X93859653Y-110311459D01*
X93859653Y-110179167D01*
X93991944Y-110179167D01*
X93991944Y-110046875D01*
X93727361Y-110046875D01*
X93727361Y-109914584D01*
X93595069Y-109914584D01*
X93595069Y-109782292D01*
X93462778Y-109782292D01*
X93462778Y-109650000D01*
X93330486Y-109650000D01*
X93330486Y-109120834D01*
X93462778Y-109120834D01*
X93462778Y-109385417D01*
X93595069Y-109385417D01*
X93595069Y-109517708D01*
X93727361Y-109517708D01*
X93727361Y-109650000D01*
X93991944Y-109650000D01*
X93991944Y-109385417D01*
X93859653Y-109385417D01*
X93859653Y-109120834D01*
X94388819Y-109120834D01*
X94521111Y-109120834D01*
X94521111Y-108988542D01*
X94388819Y-108988542D01*
X94388819Y-109120834D01*
X93859653Y-109120834D01*
X93859653Y-108988542D01*
X94256528Y-108988542D01*
X94388819Y-108988542D01*
X94388819Y-108723959D01*
X94256528Y-108723959D01*
X94256528Y-108988542D01*
X93859653Y-108988542D01*
X93727361Y-108988542D01*
X93727361Y-108856250D01*
X93859653Y-108856250D01*
X93859653Y-108723959D01*
X93727361Y-108723959D01*
X93727361Y-108856250D01*
X93595069Y-108856250D01*
X93595069Y-108723959D01*
X93727361Y-108723959D01*
X93727361Y-107797917D01*
X93859653Y-107797917D01*
X93859653Y-107665625D01*
X93991944Y-107665625D01*
X93991944Y-107533334D01*
X94124236Y-107533334D01*
X94124236Y-107797917D01*
X93991944Y-107797917D01*
X93991944Y-108459375D01*
X94124236Y-108459375D01*
X94124236Y-108723959D01*
X94256528Y-108723959D01*
X94256528Y-107533334D01*
X94521111Y-107533334D01*
X94521111Y-107136459D01*
X94785694Y-107136459D01*
X94785694Y-107004167D01*
X95050278Y-107004167D01*
X95050278Y-107136459D01*
X94917986Y-107136459D01*
X94917986Y-107268750D01*
X94785694Y-107268750D01*
X94785694Y-107665625D01*
X94653403Y-107665625D01*
X94653403Y-108327084D01*
X94785694Y-108327084D01*
X94785694Y-108591667D01*
X94917986Y-108591667D01*
X94917986Y-108856250D01*
X95050278Y-108856250D01*
X95050278Y-108988542D01*
X95182569Y-108988542D01*
X95182569Y-109120834D01*
X95050278Y-109120834D01*
X95050278Y-109517708D01*
X95182569Y-109517708D01*
X95182569Y-109650000D01*
X95447152Y-109650000D01*
X95447152Y-109517708D01*
X95579444Y-109517708D01*
X95579444Y-109253125D01*
X95844028Y-109253125D01*
X95844028Y-109385417D01*
X95976319Y-109385417D01*
X95976319Y-109517708D01*
X96108611Y-109517708D01*
X96108611Y-110179167D01*
X95976319Y-110179167D01*
X95976319Y-110576042D01*
X95844028Y-110576042D01*
X95844028Y-110840625D01*
X95711736Y-110840625D01*
X95711736Y-111105209D01*
X95579444Y-111105209D01*
X95579444Y-111237500D01*
X95447152Y-111237500D01*
X95447152Y-111502084D01*
X95314861Y-111502084D01*
X95314861Y-112295834D01*
X95182569Y-112295834D01*
X95182569Y-112031250D01*
X95050278Y-112031250D01*
X95050278Y-111634375D01*
X94653403Y-111634375D01*
X94653403Y-111502084D01*
X94521111Y-111502084D01*
X94521111Y-111369791D01*
X94256528Y-111369791D01*
X94256528Y-111237500D01*
X93991944Y-111237500D01*
X93991944Y-111105209D01*
X93859653Y-111105209D01*
X93859653Y-110972917D01*
X93727361Y-110972917D01*
X93727361Y-110840625D01*
X94388819Y-110840625D01*
X94521111Y-110840625D01*
X94521111Y-110708333D01*
X94388819Y-110708333D01*
X94388819Y-110840625D01*
X93727361Y-110840625D01*
X93727361Y-110708333D01*
X93595069Y-110708333D01*
D12*
X90762479Y-112524196D02*
X90762479Y-111024196D01*
X90262479Y-112095625D01*
X89762479Y-111024196D01*
X89762479Y-112524196D01*
X88405336Y-112524196D02*
X88405336Y-111738482D01*
X88476765Y-111595625D01*
X88619622Y-111524196D01*
X88905336Y-111524196D01*
X89048194Y-111595625D01*
X88405336Y-112452767D02*
X88548194Y-112524196D01*
X88905336Y-112524196D01*
X89048194Y-112452767D01*
X89119622Y-112309910D01*
X89119622Y-112167053D01*
X89048194Y-112024196D01*
X88905336Y-111952767D01*
X88548194Y-111952767D01*
X88405336Y-111881339D01*
X87691051Y-112524196D02*
X87691051Y-111524196D01*
X87691051Y-111809910D02*
X87619622Y-111667053D01*
X87548194Y-111595625D01*
X87405336Y-111524196D01*
X87262479Y-111524196D01*
X86762479Y-112524196D02*
X86762479Y-111524196D01*
X86762479Y-111024196D02*
X86833908Y-111095625D01*
X86762479Y-111167053D01*
X86691051Y-111095625D01*
X86762479Y-111024196D01*
X86762479Y-111167053D01*
X86048194Y-111524196D02*
X86048194Y-112809910D01*
X86119622Y-112952767D01*
X86262479Y-113024196D01*
X86333908Y-113024196D01*
X86048194Y-111024196D02*
X86119622Y-111095625D01*
X86048194Y-111167053D01*
X85976765Y-111095625D01*
X86048194Y-111024196D01*
X86048194Y-111167053D01*
X85333908Y-111524196D02*
X85333908Y-112524196D01*
X85333908Y-111667053D02*
X85262479Y-111595625D01*
X85119622Y-111524196D01*
X84905336Y-111524196D01*
X84762479Y-111595625D01*
X84691051Y-111738482D01*
X84691051Y-112524196D01*
X82976765Y-111524196D02*
X82619622Y-112524196D01*
X82262479Y-111524196D01*
X81048194Y-112524196D02*
X81048194Y-111738482D01*
X81119622Y-111595625D01*
X81262479Y-111524196D01*
X81548194Y-111524196D01*
X81691051Y-111595625D01*
X81048194Y-112452767D02*
X81191051Y-112524196D01*
X81548194Y-112524196D01*
X81691051Y-112452767D01*
X81762479Y-112309910D01*
X81762479Y-112167053D01*
X81691051Y-112024196D01*
X81548194Y-111952767D01*
X81191051Y-111952767D01*
X81048194Y-111881339D01*
X80333908Y-111524196D02*
X80333908Y-112524196D01*
X80333908Y-111667053D02*
X80262479Y-111595625D01*
X80119622Y-111524196D01*
X79905336Y-111524196D01*
X79762479Y-111595625D01*
X79691051Y-111738482D01*
X79691051Y-112524196D01*
X77833908Y-112524196D02*
X77833908Y-111024196D01*
X77476765Y-111024196D01*
X77262479Y-111095625D01*
X77119622Y-111238482D01*
X77048194Y-111381339D01*
X76976765Y-111667053D01*
X76976765Y-111881339D01*
X77048194Y-112167053D01*
X77119622Y-112309910D01*
X77262479Y-112452767D01*
X77476765Y-112524196D01*
X77833908Y-112524196D01*
X76119622Y-112524196D02*
X76262479Y-112452767D01*
X76333908Y-112381339D01*
X76405336Y-112238482D01*
X76405336Y-111809910D01*
X76333908Y-111667053D01*
X76262479Y-111595625D01*
X76119622Y-111524196D01*
X75905336Y-111524196D01*
X75762479Y-111595625D01*
X75691051Y-111667053D01*
X75619622Y-111809910D01*
X75619622Y-112238482D01*
X75691051Y-112381339D01*
X75762479Y-112452767D01*
X75905336Y-112524196D01*
X76119622Y-112524196D01*
X74976765Y-111524196D02*
X74976765Y-112524196D01*
X74976765Y-111667053D02*
X74905336Y-111595625D01*
X74762479Y-111524196D01*
X74548194Y-111524196D01*
X74405336Y-111595625D01*
X74333908Y-111738482D01*
X74333908Y-112524196D01*
X72976765Y-111524196D02*
X72976765Y-112738482D01*
X73048194Y-112881339D01*
X73119622Y-112952767D01*
X73262479Y-113024196D01*
X73476765Y-113024196D01*
X73619622Y-112952767D01*
X72976765Y-112452767D02*
X73119622Y-112524196D01*
X73405336Y-112524196D01*
X73548194Y-112452767D01*
X73619622Y-112381339D01*
X73691051Y-112238482D01*
X73691051Y-111809910D01*
X73619622Y-111667053D01*
X73548194Y-111595625D01*
X73405336Y-111524196D01*
X73119622Y-111524196D01*
X72976765Y-111595625D01*
X71691051Y-112452767D02*
X71833908Y-112524196D01*
X72119622Y-112524196D01*
X72262479Y-112452767D01*
X72333908Y-112309910D01*
X72333908Y-111738482D01*
X72262479Y-111595625D01*
X72119622Y-111524196D01*
X71833908Y-111524196D01*
X71691051Y-111595625D01*
X71619622Y-111738482D01*
X71619622Y-111881339D01*
X72333908Y-112024196D01*
X70976765Y-111524196D02*
X70976765Y-112524196D01*
X70976765Y-111667053D02*
X70905336Y-111595625D01*
X70762479Y-111524196D01*
X70548194Y-111524196D01*
X70405336Y-111595625D01*
X70333908Y-111738482D01*
X70333908Y-112524196D01*
D13*
X111304666Y-117727380D02*
X110780857Y-117060714D01*
X111304666Y-117060714D02*
X110780857Y-117727380D01*
X109447523Y-116727380D02*
X109257047Y-116727380D01*
X109161809Y-116775000D01*
X109066571Y-116870238D01*
X109018952Y-117060714D01*
X109018952Y-117394047D01*
X109066571Y-117584523D01*
X109161809Y-117679761D01*
X109257047Y-117727380D01*
X109447523Y-117727380D01*
X109542761Y-117679761D01*
X109638000Y-117584523D01*
X109685619Y-117394047D01*
X109685619Y-117060714D01*
X109638000Y-116870238D01*
X109542761Y-116775000D01*
X109447523Y-116727380D01*
X108590380Y-117060714D02*
X108590380Y-117727380D01*
X108590380Y-117155952D02*
X108542761Y-117108333D01*
X108447523Y-117060714D01*
X108304666Y-117060714D01*
X108209428Y-117108333D01*
X108161809Y-117203571D01*
X108161809Y-117727380D01*
X107542761Y-117727380D02*
X107638000Y-117679761D01*
X107685619Y-117584523D01*
X107685619Y-116727380D01*
X107161809Y-117727380D02*
X107161809Y-117060714D01*
X107161809Y-116727380D02*
X107209428Y-116775000D01*
X107161809Y-116822619D01*
X107114190Y-116775000D01*
X107161809Y-116727380D01*
X107161809Y-116822619D01*
X106685619Y-117060714D02*
X106685619Y-117727380D01*
X106685619Y-117155952D02*
X106638000Y-117108333D01*
X106542761Y-117060714D01*
X106399904Y-117060714D01*
X106304666Y-117108333D01*
X106257047Y-117203571D01*
X106257047Y-117727380D01*
X105399904Y-117679761D02*
X105495142Y-117727380D01*
X105685619Y-117727380D01*
X105780857Y-117679761D01*
X105828476Y-117584523D01*
X105828476Y-117203571D01*
X105780857Y-117108333D01*
X105685619Y-117060714D01*
X105495142Y-117060714D01*
X105399904Y-117108333D01*
X105352285Y-117203571D01*
X105352285Y-117298809D01*
X105828476Y-117394047D01*
X104352285Y-117632142D02*
X104399904Y-117679761D01*
X104542761Y-117727380D01*
X104638000Y-117727380D01*
X104780857Y-117679761D01*
X104876095Y-117584523D01*
X104923714Y-117489285D01*
X104971333Y-117298809D01*
X104971333Y-117155952D01*
X104923714Y-116965476D01*
X104876095Y-116870238D01*
X104780857Y-116775000D01*
X104638000Y-116727380D01*
X104542761Y-116727380D01*
X104399904Y-116775000D01*
X104352285Y-116822619D01*
X103495142Y-117727380D02*
X103495142Y-117203571D01*
X103542761Y-117108333D01*
X103638000Y-117060714D01*
X103828476Y-117060714D01*
X103923714Y-117108333D01*
X103495142Y-117679761D02*
X103590380Y-117727380D01*
X103828476Y-117727380D01*
X103923714Y-117679761D01*
X103971333Y-117584523D01*
X103971333Y-117489285D01*
X103923714Y-117394047D01*
X103828476Y-117346428D01*
X103590380Y-117346428D01*
X103495142Y-117298809D01*
X103161809Y-117060714D02*
X102780857Y-117060714D01*
X103018952Y-117727380D02*
X103018952Y-116870238D01*
X102971333Y-116775000D01*
X102876095Y-116727380D01*
X102780857Y-116727380D01*
X102066571Y-117679761D02*
X102161809Y-117727380D01*
X102352285Y-117727380D01*
X102447523Y-117679761D01*
X102495142Y-117584523D01*
X102495142Y-117203571D01*
X102447523Y-117108333D01*
X102352285Y-117060714D01*
X102161809Y-117060714D01*
X102066571Y-117108333D01*
X102018952Y-117203571D01*
X102018952Y-117298809D01*
X102495142Y-117394047D01*
X102161809Y-116679761D02*
X102304666Y-116822619D01*
D14*
X112680857Y-110114285D02*
X110395142Y-110114285D01*
X111538000Y-111257142D02*
X111538000Y-108971428D01*
X59957142Y-109785714D02*
X62242857Y-109785714D01*
X90244919Y-108672589D02*
X91244919Y-108672589D01*
X91244919Y-110244017D02*
X91244919Y-107244017D01*
X89816348Y-107244017D01*
X87530634Y-110101160D02*
X87816348Y-110244017D01*
X88387777Y-110244017D01*
X88673491Y-110101160D01*
X88816348Y-109815446D01*
X88816348Y-108672589D01*
X88673491Y-108386875D01*
X88387777Y-108244017D01*
X87816348Y-108244017D01*
X87530634Y-108386875D01*
X87387777Y-108672589D01*
X87387777Y-108958303D01*
X88816348Y-109244017D01*
X86102062Y-108244017D02*
X86102062Y-110244017D01*
X86102062Y-108529732D02*
X85959205Y-108386875D01*
X85673491Y-108244017D01*
X85244919Y-108244017D01*
X84959205Y-108386875D01*
X84816348Y-108672589D01*
X84816348Y-110244017D01*
X83387777Y-110244017D02*
X83387777Y-108244017D01*
X83387777Y-107244017D02*
X83530634Y-107386875D01*
X83387777Y-107529732D01*
X83244919Y-107386875D01*
X83387777Y-107244017D01*
X83387777Y-107529732D01*
X81959205Y-110244017D02*
X81959205Y-107244017D01*
X81673491Y-109101160D02*
X80816348Y-110244017D01*
X80816348Y-108244017D02*
X81959205Y-109386875D01*
X79673491Y-110101160D02*
X79387777Y-110244017D01*
X78816348Y-110244017D01*
X78530634Y-110101160D01*
X78387777Y-109815446D01*
X78387777Y-109672589D01*
X78530634Y-109386875D01*
X78816348Y-109244017D01*
X79244919Y-109244017D01*
X79530634Y-109101160D01*
X79673491Y-108815446D01*
X79673491Y-108672589D01*
X79530634Y-108386875D01*
X79244919Y-108244017D01*
X78816348Y-108244017D01*
X78530634Y-108386875D01*
X75244919Y-107244017D02*
X74244919Y-110244017D01*
X73244919Y-107244017D01*
X71673491Y-107244017D02*
X71387777Y-107244017D01*
X71102062Y-107386875D01*
X70959205Y-107529732D01*
X70816348Y-107815446D01*
X70673491Y-108386875D01*
X70673491Y-109101160D01*
X70816348Y-109672589D01*
X70959205Y-109958303D01*
X71102062Y-110101160D01*
X71387777Y-110244017D01*
X71673491Y-110244017D01*
X71959205Y-110101160D01*
X72102062Y-109958303D01*
X72244919Y-109672589D01*
X72387777Y-109101160D01*
X72387777Y-108386875D01*
X72244919Y-107815446D01*
X72102062Y-107529732D01*
X71959205Y-107386875D01*
X71673491Y-107244017D01*
X69387777Y-109958303D02*
X69244919Y-110101160D01*
X69387777Y-110244017D01*
X69530634Y-110101160D01*
X69387777Y-109958303D01*
X69387777Y-110244017D01*
X66530634Y-107244017D02*
X67959205Y-107244017D01*
X68102062Y-108672589D01*
X67959205Y-108529732D01*
X67673491Y-108386875D01*
X66959205Y-108386875D01*
X66673491Y-108529732D01*
X66530634Y-108672589D01*
X66387777Y-108958303D01*
X66387777Y-109672589D01*
X66530634Y-109958303D01*
X66673491Y-110101160D01*
X66959205Y-110244017D01*
X67673491Y-110244017D01*
X67959205Y-110101160D01*
X68102062Y-109958303D01*
M02*
