%TF.GenerationSoftware,KiCad,Pcbnew,(6.0.8)*%
%TF.CreationDate,2023-04-29T21:49:54+02:00*%
%TF.ProjectId,Feniks,46656e69-6b73-42e6-9b69-6361645f7063,rev?*%
%TF.SameCoordinates,Original*%
%TF.FileFunction,Legend,Top*%
%TF.FilePolarity,Positive*%
%FSLAX46Y46*%
G04 Gerber Fmt 4.6, Leading zero omitted, Abs format (unit mm)*
G04 Created by KiCad (PCBNEW (6.0.8)) date 2023-04-29 21:49:54*
%MOMM*%
%LPD*%
G01*
G04 APERTURE LIST*
%ADD10C,0.120000*%
%ADD11C,0.100000*%
%ADD12C,0.150000*%
%ADD13C,0.125000*%
%ADD14C,0.200000*%
G04 APERTURE END LIST*
D10*
X132452498Y-102150000D02*
G75*
G03*
X132452498Y-102150000I-2002498J0D01*
G01*
X132452498Y-117150000D02*
G75*
G03*
X132452498Y-117150000I-2002498J0D01*
G01*
D11*
G36*
X48416667Y-108961459D02*
G01*
X48548959Y-108961459D01*
X48548959Y-109093751D01*
X48681250Y-109093751D01*
X48681250Y-109226042D01*
X48813542Y-109226042D01*
X48813542Y-110019792D01*
X48681250Y-110019792D01*
X48681250Y-110152084D01*
X48548959Y-110152084D01*
X48548959Y-110284375D01*
X48416667Y-110284375D01*
X48416667Y-110416667D01*
X48152084Y-110416667D01*
X48152084Y-110548959D01*
X47622917Y-110548959D01*
X47622917Y-110416667D01*
X47358333Y-110416667D01*
X47358333Y-110284375D01*
X47226042Y-110284375D01*
X47226042Y-110152084D01*
X44844792Y-110152084D01*
X44844792Y-110019792D01*
X44712500Y-110019792D01*
X44712500Y-109887500D01*
X44844792Y-109887500D01*
X44977084Y-109887500D01*
X44977084Y-110019792D01*
X45241667Y-110019792D01*
X45241667Y-109622917D01*
X45373959Y-109622917D01*
X45373959Y-110019792D01*
X45638542Y-110019792D01*
X45638542Y-109622917D01*
X45770834Y-109622917D01*
X45770834Y-110019792D01*
X46035417Y-110019792D01*
X46035417Y-109622917D01*
X46167708Y-109622917D01*
X46167708Y-110019792D01*
X47358333Y-110019792D01*
X47358333Y-110152084D01*
X47490625Y-110152084D01*
X47490625Y-110284375D01*
X48284375Y-110284375D01*
X48284375Y-110152084D01*
X48416667Y-110152084D01*
X48416667Y-110019792D01*
X48548959Y-110019792D01*
X48548959Y-109226042D01*
X48416667Y-109226042D01*
X48416667Y-109093751D01*
X48284375Y-109093751D01*
X48284375Y-108961459D01*
X47490625Y-108961459D01*
X47490625Y-109093751D01*
X47358333Y-109093751D01*
X47358333Y-109226042D01*
X44977084Y-109226042D01*
X44977084Y-109358334D01*
X44844792Y-109358334D01*
X44844792Y-109887500D01*
X44712500Y-109887500D01*
X44580209Y-109887500D01*
X44580209Y-109358334D01*
X44712500Y-109358334D01*
X44712500Y-109226042D01*
X44844792Y-109226042D01*
X44844792Y-109093751D01*
X47226042Y-109093751D01*
X47226042Y-108961459D01*
X47358333Y-108961459D01*
X47358333Y-108829167D01*
X47622917Y-108829167D01*
X47622917Y-108696876D01*
X48152084Y-108696876D01*
X48152084Y-108829167D01*
X48416667Y-108829167D01*
X48416667Y-108961459D01*
G37*
X48416667Y-108961459D02*
X48548959Y-108961459D01*
X48548959Y-109093751D01*
X48681250Y-109093751D01*
X48681250Y-109226042D01*
X48813542Y-109226042D01*
X48813542Y-110019792D01*
X48681250Y-110019792D01*
X48681250Y-110152084D01*
X48548959Y-110152084D01*
X48548959Y-110284375D01*
X48416667Y-110284375D01*
X48416667Y-110416667D01*
X48152084Y-110416667D01*
X48152084Y-110548959D01*
X47622917Y-110548959D01*
X47622917Y-110416667D01*
X47358333Y-110416667D01*
X47358333Y-110284375D01*
X47226042Y-110284375D01*
X47226042Y-110152084D01*
X44844792Y-110152084D01*
X44844792Y-110019792D01*
X44712500Y-110019792D01*
X44712500Y-109887500D01*
X44844792Y-109887500D01*
X44977084Y-109887500D01*
X44977084Y-110019792D01*
X45241667Y-110019792D01*
X45241667Y-109622917D01*
X45373959Y-109622917D01*
X45373959Y-110019792D01*
X45638542Y-110019792D01*
X45638542Y-109622917D01*
X45770834Y-109622917D01*
X45770834Y-110019792D01*
X46035417Y-110019792D01*
X46035417Y-109622917D01*
X46167708Y-109622917D01*
X46167708Y-110019792D01*
X47358333Y-110019792D01*
X47358333Y-110152084D01*
X47490625Y-110152084D01*
X47490625Y-110284375D01*
X48284375Y-110284375D01*
X48284375Y-110152084D01*
X48416667Y-110152084D01*
X48416667Y-110019792D01*
X48548959Y-110019792D01*
X48548959Y-109226042D01*
X48416667Y-109226042D01*
X48416667Y-109093751D01*
X48284375Y-109093751D01*
X48284375Y-108961459D01*
X47490625Y-108961459D01*
X47490625Y-109093751D01*
X47358333Y-109093751D01*
X47358333Y-109226042D01*
X44977084Y-109226042D01*
X44977084Y-109358334D01*
X44844792Y-109358334D01*
X44844792Y-109887500D01*
X44712500Y-109887500D01*
X44580209Y-109887500D01*
X44580209Y-109358334D01*
X44712500Y-109358334D01*
X44712500Y-109226042D01*
X44844792Y-109226042D01*
X44844792Y-109093751D01*
X47226042Y-109093751D01*
X47226042Y-108961459D01*
X47358333Y-108961459D01*
X47358333Y-108829167D01*
X47622917Y-108829167D01*
X47622917Y-108696876D01*
X48152084Y-108696876D01*
X48152084Y-108829167D01*
X48416667Y-108829167D01*
X48416667Y-108961459D01*
D10*
X47452498Y-117150000D02*
G75*
G03*
X47452498Y-117150000I-2002498J0D01*
G01*
X47452498Y-102150000D02*
G75*
G03*
X47452498Y-102150000I-2002498J0D01*
G01*
D11*
G36*
X46829167Y-110416667D02*
G01*
X47226042Y-110416667D01*
X47226042Y-110548959D01*
X47490625Y-110548959D01*
X47490625Y-110681250D01*
X47755209Y-110681250D01*
X47755209Y-110813542D01*
X47887500Y-110813542D01*
X47887500Y-110945834D01*
X48152084Y-110945834D01*
X48152084Y-111078125D01*
X48945834Y-111078125D01*
X48945834Y-111210417D01*
X48681250Y-111210417D01*
X48681250Y-111342709D01*
X48284375Y-111342709D01*
X48284375Y-111739583D01*
X48152084Y-111739583D01*
X48152084Y-111871875D01*
X48019791Y-111871875D01*
X48019791Y-112136458D01*
X47887500Y-112136458D01*
X47887500Y-112401042D01*
X47755209Y-112401042D01*
X47755209Y-112533333D01*
X47622917Y-112533333D01*
X47622917Y-112665625D01*
X47358333Y-112665625D01*
X47358333Y-112797917D01*
X47226042Y-112797917D01*
X47226042Y-112930208D01*
X46961459Y-112930208D01*
X46961459Y-112797917D01*
X47093750Y-112797917D01*
X47093750Y-112665625D01*
X47226042Y-112665625D01*
X47226042Y-112401042D01*
X47358333Y-112401042D01*
X47358333Y-112004167D01*
X47490625Y-112004167D01*
X47490625Y-111871875D01*
X47358333Y-111871875D01*
X47358333Y-112004167D01*
X47226042Y-112004167D01*
X47226042Y-112268750D01*
X47093750Y-112268750D01*
X47093750Y-112401042D01*
X46961459Y-112401042D01*
X46961459Y-112533333D01*
X46829167Y-112533333D01*
X46829167Y-112401042D01*
X46696875Y-112401042D01*
X46696875Y-112665625D01*
X46564584Y-112665625D01*
X46564584Y-112797917D01*
X46432292Y-112797917D01*
X46432292Y-112930208D01*
X46300000Y-112930208D01*
X46300000Y-113062500D01*
X45770834Y-113062500D01*
X45770834Y-112930208D01*
X46035417Y-112930208D01*
X46035417Y-112797917D01*
X46167708Y-112797917D01*
X46167708Y-112665625D01*
X46300000Y-112665625D01*
X46300000Y-112401042D01*
X46035417Y-112401042D01*
X46035417Y-112533333D01*
X45638542Y-112533333D01*
X45638542Y-112665625D01*
X45506250Y-112665625D01*
X45506250Y-112533333D01*
X45373959Y-112533333D01*
X45373959Y-112665625D01*
X44447917Y-112665625D01*
X44447917Y-112533333D01*
X44315625Y-112533333D01*
X44315625Y-112401042D01*
X44183334Y-112401042D01*
X44183334Y-112268750D01*
X44447917Y-112268750D01*
X44447917Y-112401042D01*
X45109375Y-112401042D01*
X45109375Y-112268750D01*
X45373959Y-112268750D01*
X45373959Y-112136458D01*
X45638542Y-112136458D01*
X45638542Y-112004167D01*
X45770834Y-112004167D01*
X45770834Y-111871875D01*
X45638542Y-111871875D01*
X45638542Y-112004167D01*
X45373959Y-112004167D01*
X45373959Y-112136458D01*
X44183334Y-112136458D01*
X44183334Y-111871875D01*
X43786459Y-111871875D01*
X43786459Y-111607292D01*
X43654167Y-111607292D01*
X43654167Y-111342709D01*
X43786459Y-111342709D01*
X43786459Y-111475000D01*
X43918750Y-111475000D01*
X43918750Y-111607292D01*
X44315625Y-111607292D01*
X44315625Y-111739583D01*
X44977084Y-111739583D01*
X44977084Y-111607292D01*
X45241667Y-111607292D01*
X45241667Y-111475000D01*
X45506250Y-111475000D01*
X45506250Y-111342709D01*
X45638542Y-111342709D01*
X45638542Y-111210417D01*
X45770834Y-111210417D01*
X45770834Y-111342709D01*
X46167708Y-111342709D01*
X46167708Y-111210417D01*
X46300000Y-111210417D01*
X46300000Y-110945834D01*
X46167708Y-110945834D01*
X46167708Y-110813542D01*
X45903125Y-110813542D01*
X45903125Y-110548959D01*
X46035417Y-110548959D01*
X46035417Y-110416667D01*
X46167708Y-110416667D01*
X46167708Y-110284375D01*
X46829167Y-110284375D01*
X46829167Y-110416667D01*
G37*
X46829167Y-110416667D02*
X47226042Y-110416667D01*
X47226042Y-110548959D01*
X47490625Y-110548959D01*
X47490625Y-110681250D01*
X47755209Y-110681250D01*
X47755209Y-110813542D01*
X47887500Y-110813542D01*
X47887500Y-110945834D01*
X48152084Y-110945834D01*
X48152084Y-111078125D01*
X48945834Y-111078125D01*
X48945834Y-111210417D01*
X48681250Y-111210417D01*
X48681250Y-111342709D01*
X48284375Y-111342709D01*
X48284375Y-111739583D01*
X48152084Y-111739583D01*
X48152084Y-111871875D01*
X48019791Y-111871875D01*
X48019791Y-112136458D01*
X47887500Y-112136458D01*
X47887500Y-112401042D01*
X47755209Y-112401042D01*
X47755209Y-112533333D01*
X47622917Y-112533333D01*
X47622917Y-112665625D01*
X47358333Y-112665625D01*
X47358333Y-112797917D01*
X47226042Y-112797917D01*
X47226042Y-112930208D01*
X46961459Y-112930208D01*
X46961459Y-112797917D01*
X47093750Y-112797917D01*
X47093750Y-112665625D01*
X47226042Y-112665625D01*
X47226042Y-112401042D01*
X47358333Y-112401042D01*
X47358333Y-112004167D01*
X47490625Y-112004167D01*
X47490625Y-111871875D01*
X47358333Y-111871875D01*
X47358333Y-112004167D01*
X47226042Y-112004167D01*
X47226042Y-112268750D01*
X47093750Y-112268750D01*
X47093750Y-112401042D01*
X46961459Y-112401042D01*
X46961459Y-112533333D01*
X46829167Y-112533333D01*
X46829167Y-112401042D01*
X46696875Y-112401042D01*
X46696875Y-112665625D01*
X46564584Y-112665625D01*
X46564584Y-112797917D01*
X46432292Y-112797917D01*
X46432292Y-112930208D01*
X46300000Y-112930208D01*
X46300000Y-113062500D01*
X45770834Y-113062500D01*
X45770834Y-112930208D01*
X46035417Y-112930208D01*
X46035417Y-112797917D01*
X46167708Y-112797917D01*
X46167708Y-112665625D01*
X46300000Y-112665625D01*
X46300000Y-112401042D01*
X46035417Y-112401042D01*
X46035417Y-112533333D01*
X45638542Y-112533333D01*
X45638542Y-112665625D01*
X45506250Y-112665625D01*
X45506250Y-112533333D01*
X45373959Y-112533333D01*
X45373959Y-112665625D01*
X44447917Y-112665625D01*
X44447917Y-112533333D01*
X44315625Y-112533333D01*
X44315625Y-112401042D01*
X44183334Y-112401042D01*
X44183334Y-112268750D01*
X44447917Y-112268750D01*
X44447917Y-112401042D01*
X45109375Y-112401042D01*
X45109375Y-112268750D01*
X45373959Y-112268750D01*
X45373959Y-112136458D01*
X45638542Y-112136458D01*
X45638542Y-112004167D01*
X45770834Y-112004167D01*
X45770834Y-111871875D01*
X45638542Y-111871875D01*
X45638542Y-112004167D01*
X45373959Y-112004167D01*
X45373959Y-112136458D01*
X44183334Y-112136458D01*
X44183334Y-111871875D01*
X43786459Y-111871875D01*
X43786459Y-111607292D01*
X43654167Y-111607292D01*
X43654167Y-111342709D01*
X43786459Y-111342709D01*
X43786459Y-111475000D01*
X43918750Y-111475000D01*
X43918750Y-111607292D01*
X44315625Y-111607292D01*
X44315625Y-111739583D01*
X44977084Y-111739583D01*
X44977084Y-111607292D01*
X45241667Y-111607292D01*
X45241667Y-111475000D01*
X45506250Y-111475000D01*
X45506250Y-111342709D01*
X45638542Y-111342709D01*
X45638542Y-111210417D01*
X45770834Y-111210417D01*
X45770834Y-111342709D01*
X46167708Y-111342709D01*
X46167708Y-111210417D01*
X46300000Y-111210417D01*
X46300000Y-110945834D01*
X46167708Y-110945834D01*
X46167708Y-110813542D01*
X45903125Y-110813542D01*
X45903125Y-110548959D01*
X46035417Y-110548959D01*
X46035417Y-110416667D01*
X46167708Y-110416667D01*
X46167708Y-110284375D01*
X46829167Y-110284375D01*
X46829167Y-110416667D01*
G36*
X47622917Y-106712501D02*
G01*
X47755209Y-106712501D01*
X47755209Y-106844792D01*
X47887500Y-106844792D01*
X47887500Y-107109376D01*
X48019791Y-107109376D01*
X48019791Y-107373959D01*
X48152084Y-107373959D01*
X48152084Y-107506251D01*
X48284375Y-107506251D01*
X48284375Y-107903126D01*
X48681250Y-107903126D01*
X48681250Y-108035417D01*
X48945834Y-108035417D01*
X48945834Y-108167709D01*
X48152084Y-108167709D01*
X48152084Y-108300000D01*
X47887500Y-108300000D01*
X47887500Y-108432292D01*
X47755209Y-108432292D01*
X47755209Y-108564584D01*
X47490625Y-108564584D01*
X47490625Y-108696876D01*
X47226042Y-108696876D01*
X47226042Y-108829167D01*
X46829167Y-108829167D01*
X46829167Y-108961459D01*
X46167708Y-108961459D01*
X46167708Y-108829167D01*
X46035417Y-108829167D01*
X46035417Y-108696876D01*
X45903125Y-108696876D01*
X45903125Y-108432292D01*
X46167708Y-108432292D01*
X46167708Y-108300000D01*
X46300000Y-108300000D01*
X46300000Y-108035417D01*
X46167708Y-108035417D01*
X46167708Y-107903126D01*
X45770834Y-107903126D01*
X45770834Y-108035417D01*
X45638542Y-108035417D01*
X45638542Y-107903126D01*
X45506250Y-107903126D01*
X45506250Y-107770834D01*
X45241667Y-107770834D01*
X45241667Y-107638542D01*
X44977084Y-107638542D01*
X44977084Y-107506251D01*
X44315625Y-107506251D01*
X44315625Y-107638542D01*
X43918750Y-107638542D01*
X43918750Y-107770834D01*
X43786459Y-107770834D01*
X43786459Y-107903126D01*
X43654167Y-107903126D01*
X43654167Y-107638542D01*
X43786459Y-107638542D01*
X43786459Y-107373959D01*
X44183334Y-107373959D01*
X45638542Y-107373959D01*
X45770834Y-107373959D01*
X47358333Y-107373959D01*
X47490625Y-107373959D01*
X47490625Y-107241667D01*
X47358333Y-107241667D01*
X47358333Y-107373959D01*
X45770834Y-107373959D01*
X45770834Y-107241667D01*
X45638542Y-107241667D01*
X45638542Y-107373959D01*
X44183334Y-107373959D01*
X44183334Y-107241667D01*
X45373959Y-107241667D01*
X45638542Y-107241667D01*
X45638542Y-107109376D01*
X45373959Y-107109376D01*
X45373959Y-107241667D01*
X44183334Y-107241667D01*
X44183334Y-107109376D01*
X45373959Y-107109376D01*
X45373959Y-106977084D01*
X45109375Y-106977084D01*
X45109375Y-106844792D01*
X44447917Y-106844792D01*
X44447917Y-106977084D01*
X44183334Y-106977084D01*
X44183334Y-106844792D01*
X44315625Y-106844792D01*
X44315625Y-106712501D01*
X44447917Y-106712501D01*
X44447917Y-106580209D01*
X45373959Y-106580209D01*
X45373959Y-106447917D01*
X45506250Y-106447917D01*
X45506250Y-106580209D01*
X45373959Y-106580209D01*
X45373959Y-106712501D01*
X45506250Y-106712501D01*
X45506250Y-106580209D01*
X45638542Y-106580209D01*
X45638542Y-106712501D01*
X46035417Y-106712501D01*
X46035417Y-106844792D01*
X46300000Y-106844792D01*
X46300000Y-106580209D01*
X46167708Y-106580209D01*
X46167708Y-106447917D01*
X46035417Y-106447917D01*
X46035417Y-106315626D01*
X45770834Y-106315626D01*
X45770834Y-106183334D01*
X46300000Y-106183334D01*
X46300000Y-106315626D01*
X46432292Y-106315626D01*
X46432292Y-106447917D01*
X46564584Y-106447917D01*
X46564584Y-106580209D01*
X46696875Y-106580209D01*
X46696875Y-106844792D01*
X46829167Y-106844792D01*
X46829167Y-106712501D01*
X46961459Y-106712501D01*
X46961459Y-106844792D01*
X47093750Y-106844792D01*
X47093750Y-106977084D01*
X47226042Y-106977084D01*
X47226042Y-107241667D01*
X47358333Y-107241667D01*
X47358333Y-106844792D01*
X47226042Y-106844792D01*
X47226042Y-106580209D01*
X47093750Y-106580209D01*
X47093750Y-106447917D01*
X46961459Y-106447917D01*
X46961459Y-106315626D01*
X47226042Y-106315626D01*
X47226042Y-106447917D01*
X47358333Y-106447917D01*
X47358333Y-106580209D01*
X47622917Y-106580209D01*
X47622917Y-106712501D01*
G37*
X47622917Y-106712501D02*
X47755209Y-106712501D01*
X47755209Y-106844792D01*
X47887500Y-106844792D01*
X47887500Y-107109376D01*
X48019791Y-107109376D01*
X48019791Y-107373959D01*
X48152084Y-107373959D01*
X48152084Y-107506251D01*
X48284375Y-107506251D01*
X48284375Y-107903126D01*
X48681250Y-107903126D01*
X48681250Y-108035417D01*
X48945834Y-108035417D01*
X48945834Y-108167709D01*
X48152084Y-108167709D01*
X48152084Y-108300000D01*
X47887500Y-108300000D01*
X47887500Y-108432292D01*
X47755209Y-108432292D01*
X47755209Y-108564584D01*
X47490625Y-108564584D01*
X47490625Y-108696876D01*
X47226042Y-108696876D01*
X47226042Y-108829167D01*
X46829167Y-108829167D01*
X46829167Y-108961459D01*
X46167708Y-108961459D01*
X46167708Y-108829167D01*
X46035417Y-108829167D01*
X46035417Y-108696876D01*
X45903125Y-108696876D01*
X45903125Y-108432292D01*
X46167708Y-108432292D01*
X46167708Y-108300000D01*
X46300000Y-108300000D01*
X46300000Y-108035417D01*
X46167708Y-108035417D01*
X46167708Y-107903126D01*
X45770834Y-107903126D01*
X45770834Y-108035417D01*
X45638542Y-108035417D01*
X45638542Y-107903126D01*
X45506250Y-107903126D01*
X45506250Y-107770834D01*
X45241667Y-107770834D01*
X45241667Y-107638542D01*
X44977084Y-107638542D01*
X44977084Y-107506251D01*
X44315625Y-107506251D01*
X44315625Y-107638542D01*
X43918750Y-107638542D01*
X43918750Y-107770834D01*
X43786459Y-107770834D01*
X43786459Y-107903126D01*
X43654167Y-107903126D01*
X43654167Y-107638542D01*
X43786459Y-107638542D01*
X43786459Y-107373959D01*
X44183334Y-107373959D01*
X45638542Y-107373959D01*
X45770834Y-107373959D01*
X47358333Y-107373959D01*
X47490625Y-107373959D01*
X47490625Y-107241667D01*
X47358333Y-107241667D01*
X47358333Y-107373959D01*
X45770834Y-107373959D01*
X45770834Y-107241667D01*
X45638542Y-107241667D01*
X45638542Y-107373959D01*
X44183334Y-107373959D01*
X44183334Y-107241667D01*
X45373959Y-107241667D01*
X45638542Y-107241667D01*
X45638542Y-107109376D01*
X45373959Y-107109376D01*
X45373959Y-107241667D01*
X44183334Y-107241667D01*
X44183334Y-107109376D01*
X45373959Y-107109376D01*
X45373959Y-106977084D01*
X45109375Y-106977084D01*
X45109375Y-106844792D01*
X44447917Y-106844792D01*
X44447917Y-106977084D01*
X44183334Y-106977084D01*
X44183334Y-106844792D01*
X44315625Y-106844792D01*
X44315625Y-106712501D01*
X44447917Y-106712501D01*
X44447917Y-106580209D01*
X45373959Y-106580209D01*
X45373959Y-106447917D01*
X45506250Y-106447917D01*
X45506250Y-106580209D01*
X45373959Y-106580209D01*
X45373959Y-106712501D01*
X45506250Y-106712501D01*
X45506250Y-106580209D01*
X45638542Y-106580209D01*
X45638542Y-106712501D01*
X46035417Y-106712501D01*
X46035417Y-106844792D01*
X46300000Y-106844792D01*
X46300000Y-106580209D01*
X46167708Y-106580209D01*
X46167708Y-106447917D01*
X46035417Y-106447917D01*
X46035417Y-106315626D01*
X45770834Y-106315626D01*
X45770834Y-106183334D01*
X46300000Y-106183334D01*
X46300000Y-106315626D01*
X46432292Y-106315626D01*
X46432292Y-106447917D01*
X46564584Y-106447917D01*
X46564584Y-106580209D01*
X46696875Y-106580209D01*
X46696875Y-106844792D01*
X46829167Y-106844792D01*
X46829167Y-106712501D01*
X46961459Y-106712501D01*
X46961459Y-106844792D01*
X47093750Y-106844792D01*
X47093750Y-106977084D01*
X47226042Y-106977084D01*
X47226042Y-107241667D01*
X47358333Y-107241667D01*
X47358333Y-106844792D01*
X47226042Y-106844792D01*
X47226042Y-106580209D01*
X47093750Y-106580209D01*
X47093750Y-106447917D01*
X46961459Y-106447917D01*
X46961459Y-106315626D01*
X47226042Y-106315626D01*
X47226042Y-106447917D01*
X47358333Y-106447917D01*
X47358333Y-106580209D01*
X47622917Y-106580209D01*
X47622917Y-106712501D01*
D12*
X58810714Y-106039285D02*
X58560714Y-105682142D01*
X58382142Y-106039285D02*
X58382142Y-105289285D01*
X58667857Y-105289285D01*
X58739285Y-105325000D01*
X58775000Y-105360714D01*
X58810714Y-105432142D01*
X58810714Y-105539285D01*
X58775000Y-105610714D01*
X58739285Y-105646428D01*
X58667857Y-105682142D01*
X58382142Y-105682142D01*
X59132142Y-105646428D02*
X59382142Y-105646428D01*
X59489285Y-106039285D02*
X59132142Y-106039285D01*
X59132142Y-105289285D01*
X59489285Y-105289285D01*
X59775000Y-106003571D02*
X59882142Y-106039285D01*
X60060714Y-106039285D01*
X60132142Y-106003571D01*
X60167857Y-105967857D01*
X60203571Y-105896428D01*
X60203571Y-105825000D01*
X60167857Y-105753571D01*
X60132142Y-105717857D01*
X60060714Y-105682142D01*
X59917857Y-105646428D01*
X59846428Y-105610714D01*
X59810714Y-105575000D01*
X59775000Y-105503571D01*
X59775000Y-105432142D01*
X59810714Y-105360714D01*
X59846428Y-105325000D01*
X59917857Y-105289285D01*
X60096428Y-105289285D01*
X60203571Y-105325000D01*
X60525000Y-105646428D02*
X60775000Y-105646428D01*
X60882142Y-106039285D02*
X60525000Y-106039285D01*
X60525000Y-105289285D01*
X60882142Y-105289285D01*
X61096428Y-105289285D02*
X61525000Y-105289285D01*
X61310714Y-106039285D02*
X61310714Y-105289285D01*
D11*
X128973809Y-105495238D02*
X129473809Y-105495238D01*
X129116666Y-105661904D01*
X129473809Y-105828571D01*
X128973809Y-105828571D01*
X128973809Y-106280952D02*
X129235714Y-106280952D01*
X129283333Y-106257142D01*
X129307142Y-106209523D01*
X129307142Y-106114285D01*
X129283333Y-106066666D01*
X128997619Y-106280952D02*
X128973809Y-106233333D01*
X128973809Y-106114285D01*
X128997619Y-106066666D01*
X129045238Y-106042857D01*
X129092857Y-106042857D01*
X129140476Y-106066666D01*
X129164285Y-106114285D01*
X129164285Y-106233333D01*
X129188095Y-106280952D01*
X128973809Y-106519047D02*
X129307142Y-106519047D01*
X129211904Y-106519047D02*
X129259523Y-106542857D01*
X129283333Y-106566666D01*
X129307142Y-106614285D01*
X129307142Y-106661904D01*
X128973809Y-106828571D02*
X129307142Y-106828571D01*
X129473809Y-106828571D02*
X129450000Y-106804761D01*
X129426190Y-106828571D01*
X129450000Y-106852380D01*
X129473809Y-106828571D01*
X129426190Y-106828571D01*
X129307142Y-107066666D02*
X128878571Y-107066666D01*
X128830952Y-107042857D01*
X128807142Y-106995238D01*
X128807142Y-106971428D01*
X129473809Y-107066666D02*
X129450000Y-107042857D01*
X129426190Y-107066666D01*
X129450000Y-107090476D01*
X129473809Y-107066666D01*
X129426190Y-107066666D01*
X129307142Y-107304761D02*
X128973809Y-107304761D01*
X129259523Y-107304761D02*
X129283333Y-107328571D01*
X129307142Y-107376190D01*
X129307142Y-107447619D01*
X129283333Y-107495238D01*
X129235714Y-107519047D01*
X128973809Y-107519047D01*
X129307142Y-108090476D02*
X128973809Y-108209523D01*
X129307142Y-108328571D01*
X128973809Y-108733333D02*
X129235714Y-108733333D01*
X129283333Y-108709523D01*
X129307142Y-108661904D01*
X129307142Y-108566666D01*
X129283333Y-108519047D01*
X128997619Y-108733333D02*
X128973809Y-108685714D01*
X128973809Y-108566666D01*
X128997619Y-108519047D01*
X129045238Y-108495238D01*
X129092857Y-108495238D01*
X129140476Y-108519047D01*
X129164285Y-108566666D01*
X129164285Y-108685714D01*
X129188095Y-108733333D01*
X129307142Y-108971428D02*
X128973809Y-108971428D01*
X129259523Y-108971428D02*
X129283333Y-108995238D01*
X129307142Y-109042857D01*
X129307142Y-109114285D01*
X129283333Y-109161904D01*
X129235714Y-109185714D01*
X128973809Y-109185714D01*
X128973809Y-109804761D02*
X129473809Y-109804761D01*
X129473809Y-109923809D01*
X129450000Y-109995238D01*
X129402380Y-110042857D01*
X129354761Y-110066666D01*
X129259523Y-110090476D01*
X129188095Y-110090476D01*
X129092857Y-110066666D01*
X129045238Y-110042857D01*
X128997619Y-109995238D01*
X128973809Y-109923809D01*
X128973809Y-109804761D01*
X128973809Y-110376190D02*
X128997619Y-110328571D01*
X129021428Y-110304761D01*
X129069047Y-110280952D01*
X129211904Y-110280952D01*
X129259523Y-110304761D01*
X129283333Y-110328571D01*
X129307142Y-110376190D01*
X129307142Y-110447619D01*
X129283333Y-110495238D01*
X129259523Y-110519047D01*
X129211904Y-110542857D01*
X129069047Y-110542857D01*
X129021428Y-110519047D01*
X128997619Y-110495238D01*
X128973809Y-110447619D01*
X128973809Y-110376190D01*
X129307142Y-110757142D02*
X128973809Y-110757142D01*
X129259523Y-110757142D02*
X129283333Y-110780952D01*
X129307142Y-110828571D01*
X129307142Y-110900000D01*
X129283333Y-110947619D01*
X129235714Y-110971428D01*
X128973809Y-110971428D01*
X129307142Y-111423809D02*
X128902380Y-111423809D01*
X128854761Y-111400000D01*
X128830952Y-111376190D01*
X128807142Y-111328571D01*
X128807142Y-111257142D01*
X128830952Y-111209523D01*
X128997619Y-111423809D02*
X128973809Y-111376190D01*
X128973809Y-111280952D01*
X128997619Y-111233333D01*
X129021428Y-111209523D01*
X129069047Y-111185714D01*
X129211904Y-111185714D01*
X129259523Y-111209523D01*
X129283333Y-111233333D01*
X129307142Y-111280952D01*
X129307142Y-111376190D01*
X129283333Y-111423809D01*
X128997619Y-111852380D02*
X128973809Y-111804761D01*
X128973809Y-111709523D01*
X128997619Y-111661904D01*
X129045238Y-111638095D01*
X129235714Y-111638095D01*
X129283333Y-111661904D01*
X129307142Y-111709523D01*
X129307142Y-111804761D01*
X129283333Y-111852380D01*
X129235714Y-111876190D01*
X129188095Y-111876190D01*
X129140476Y-111638095D01*
X129307142Y-112090476D02*
X128973809Y-112090476D01*
X129259523Y-112090476D02*
X129283333Y-112114285D01*
X129307142Y-112161904D01*
X129307142Y-112233333D01*
X129283333Y-112280952D01*
X129235714Y-112304761D01*
X128973809Y-112304761D01*
D13*
X48575892Y-114613750D02*
X48504464Y-114578035D01*
X48397321Y-114578035D01*
X48290178Y-114613750D01*
X48218750Y-114685178D01*
X48183035Y-114756607D01*
X48147321Y-114899464D01*
X48147321Y-115006607D01*
X48183035Y-115149464D01*
X48218750Y-115220892D01*
X48290178Y-115292321D01*
X48397321Y-115328035D01*
X48468750Y-115328035D01*
X48575892Y-115292321D01*
X48611607Y-115256607D01*
X48611607Y-115006607D01*
X48468750Y-115006607D01*
X48933035Y-115328035D02*
X48933035Y-114578035D01*
X49361607Y-115328035D01*
X49361607Y-114578035D01*
X49718750Y-115328035D02*
X49718750Y-114578035D01*
X49897321Y-114578035D01*
X50004464Y-114613750D01*
X50075892Y-114685178D01*
X50111607Y-114756607D01*
X50147321Y-114899464D01*
X50147321Y-115006607D01*
X50111607Y-115149464D01*
X50075892Y-115220892D01*
X50004464Y-115292321D01*
X49897321Y-115328035D01*
X49718750Y-115328035D01*
X50468750Y-115042321D02*
X51040178Y-115042321D01*
X48218750Y-115785535D02*
X48468750Y-116535535D01*
X48718750Y-115785535D01*
X48968750Y-116535535D02*
X48968750Y-115785535D01*
X49147321Y-115785535D01*
X49254464Y-115821250D01*
X49325892Y-115892678D01*
X49361607Y-115964107D01*
X49397321Y-116106964D01*
X49397321Y-116214107D01*
X49361607Y-116356964D01*
X49325892Y-116428392D01*
X49254464Y-116499821D01*
X49147321Y-116535535D01*
X48968750Y-116535535D01*
X49718750Y-116535535D02*
X49718750Y-115785535D01*
X49897321Y-115785535D01*
X50004464Y-115821250D01*
X50075892Y-115892678D01*
X50111607Y-115964107D01*
X50147321Y-116106964D01*
X50147321Y-116214107D01*
X50111607Y-116356964D01*
X50075892Y-116428392D01*
X50004464Y-116499821D01*
X49897321Y-116535535D01*
X49718750Y-116535535D01*
X50468750Y-116249821D02*
X51040178Y-116249821D01*
X48361607Y-117707321D02*
X48468750Y-117743035D01*
X48647321Y-117743035D01*
X48718750Y-117707321D01*
X48754464Y-117671607D01*
X48790178Y-117600178D01*
X48790178Y-117528750D01*
X48754464Y-117457321D01*
X48718750Y-117421607D01*
X48647321Y-117385892D01*
X48504464Y-117350178D01*
X48433035Y-117314464D01*
X48397321Y-117278750D01*
X48361607Y-117207321D01*
X48361607Y-117135892D01*
X48397321Y-117064464D01*
X48433035Y-117028750D01*
X48504464Y-116993035D01*
X48683035Y-116993035D01*
X48790178Y-117028750D01*
X49540178Y-117671607D02*
X49504464Y-117707321D01*
X49397321Y-117743035D01*
X49325892Y-117743035D01*
X49218750Y-117707321D01*
X49147321Y-117635892D01*
X49111607Y-117564464D01*
X49075892Y-117421607D01*
X49075892Y-117314464D01*
X49111607Y-117171607D01*
X49147321Y-117100178D01*
X49218750Y-117028750D01*
X49325892Y-116993035D01*
X49397321Y-116993035D01*
X49504464Y-117028750D01*
X49540178Y-117064464D01*
X50218750Y-117743035D02*
X49861607Y-117743035D01*
X49861607Y-116993035D01*
X50468750Y-117457321D02*
X51040178Y-117457321D01*
X48325892Y-118914821D02*
X48433035Y-118950535D01*
X48611607Y-118950535D01*
X48683035Y-118914821D01*
X48718750Y-118879107D01*
X48754464Y-118807678D01*
X48754464Y-118736250D01*
X48718750Y-118664821D01*
X48683035Y-118629107D01*
X48611607Y-118593392D01*
X48468750Y-118557678D01*
X48397321Y-118521964D01*
X48361607Y-118486250D01*
X48325892Y-118414821D01*
X48325892Y-118343392D01*
X48361607Y-118271964D01*
X48397321Y-118236250D01*
X48468750Y-118200535D01*
X48647321Y-118200535D01*
X48754464Y-118236250D01*
X49075892Y-118950535D02*
X49075892Y-118200535D01*
X49254464Y-118200535D01*
X49361607Y-118236250D01*
X49433035Y-118307678D01*
X49468750Y-118379107D01*
X49504464Y-118521964D01*
X49504464Y-118629107D01*
X49468750Y-118771964D01*
X49433035Y-118843392D01*
X49361607Y-118914821D01*
X49254464Y-118950535D01*
X49075892Y-118950535D01*
X49790178Y-118736250D02*
X50147321Y-118736250D01*
X49718750Y-118950535D02*
X49968750Y-118200535D01*
X50218750Y-118950535D01*
X50468750Y-118664821D02*
X51040178Y-118664821D01*
D12*
X43915475Y-110694346D02*
X43915475Y-110894346D01*
X44229761Y-110894346D02*
X43629761Y-110894346D01*
X43629761Y-110608632D01*
X44201190Y-110151489D02*
X44229761Y-110208632D01*
X44229761Y-110322918D01*
X44201190Y-110380060D01*
X44144047Y-110408632D01*
X43915475Y-110408632D01*
X43858333Y-110380060D01*
X43829761Y-110322918D01*
X43829761Y-110208632D01*
X43858333Y-110151489D01*
X43915475Y-110122918D01*
X43972618Y-110122918D01*
X44029761Y-110408632D01*
X43829761Y-109865775D02*
X44229761Y-109865775D01*
X43886904Y-109865775D02*
X43858333Y-109837203D01*
X43829761Y-109780060D01*
X43829761Y-109694346D01*
X43858333Y-109637203D01*
X43915475Y-109608632D01*
X44229761Y-109608632D01*
X44229761Y-109322918D02*
X43829761Y-109322918D01*
X43629761Y-109322918D02*
X43658333Y-109351489D01*
X43686904Y-109322918D01*
X43658333Y-109294346D01*
X43629761Y-109322918D01*
X43686904Y-109322918D01*
X44229761Y-109037203D02*
X43629761Y-109037203D01*
X44001190Y-108980060D02*
X44229761Y-108808632D01*
X43829761Y-108808632D02*
X44058333Y-109037203D01*
X44201190Y-108580060D02*
X44229761Y-108522918D01*
X44229761Y-108408632D01*
X44201190Y-108351489D01*
X44144047Y-108322918D01*
X44115475Y-108322918D01*
X44058333Y-108351489D01*
X44029761Y-108408632D01*
X44029761Y-108494346D01*
X44001190Y-108551489D01*
X43944047Y-108580060D01*
X43915475Y-108580060D01*
X43858333Y-108551489D01*
X43829761Y-108494346D01*
X43829761Y-108408632D01*
X43858333Y-108351489D01*
X58463714Y-116514761D02*
X58368476Y-116562380D01*
X58178000Y-116562380D01*
X58082761Y-116514761D01*
X58035142Y-116467142D01*
X57987523Y-116371904D01*
X57987523Y-116086190D01*
X58035142Y-115990952D01*
X58082761Y-115943333D01*
X58178000Y-115895714D01*
X58368476Y-115895714D01*
X58463714Y-115943333D01*
X58892285Y-116562380D02*
X58892285Y-115562380D01*
X59320857Y-116562380D02*
X59320857Y-116038571D01*
X59273238Y-115943333D01*
X59178000Y-115895714D01*
X59035142Y-115895714D01*
X58939904Y-115943333D01*
X58892285Y-115990952D01*
X58344666Y-117172380D02*
X58963714Y-117172380D01*
X58630380Y-117553333D01*
X58773238Y-117553333D01*
X58868476Y-117600952D01*
X58916095Y-117648571D01*
X58963714Y-117743809D01*
X58963714Y-117981904D01*
X58916095Y-118077142D01*
X58868476Y-118124761D01*
X58773238Y-118172380D01*
X58487523Y-118172380D01*
X58392285Y-118124761D01*
X58344666Y-118077142D01*
X69213714Y-116514761D02*
X69118476Y-116562380D01*
X68928000Y-116562380D01*
X68832761Y-116514761D01*
X68785142Y-116467142D01*
X68737523Y-116371904D01*
X68737523Y-116086190D01*
X68785142Y-115990952D01*
X68832761Y-115943333D01*
X68928000Y-115895714D01*
X69118476Y-115895714D01*
X69213714Y-115943333D01*
X69642285Y-116562380D02*
X69642285Y-115562380D01*
X70070857Y-116562380D02*
X70070857Y-116038571D01*
X70023238Y-115943333D01*
X69928000Y-115895714D01*
X69785142Y-115895714D01*
X69689904Y-115943333D01*
X69642285Y-115990952D01*
X69713714Y-118172380D02*
X69142285Y-118172380D01*
X69428000Y-118172380D02*
X69428000Y-117172380D01*
X69332761Y-117315238D01*
X69237523Y-117410476D01*
X69142285Y-117458095D01*
X113218857Y-119728571D02*
X113290285Y-119764285D01*
X113433142Y-119764285D01*
X113504571Y-119728571D01*
X113540285Y-119657142D01*
X113540285Y-119621428D01*
X113504571Y-119550000D01*
X113433142Y-119514285D01*
X113326000Y-119514285D01*
X113254571Y-119478571D01*
X113218857Y-119407142D01*
X113218857Y-119371428D01*
X113254571Y-119300000D01*
X113326000Y-119264285D01*
X113433142Y-119264285D01*
X113504571Y-119300000D01*
X113790285Y-119264285D02*
X113933142Y-119764285D01*
X114076000Y-119407142D01*
X114218857Y-119764285D01*
X114361714Y-119264285D01*
X114647428Y-119764285D02*
X114647428Y-119264285D01*
X114647428Y-119014285D02*
X114611714Y-119050000D01*
X114647428Y-119085714D01*
X114683142Y-119050000D01*
X114647428Y-119014285D01*
X114647428Y-119085714D01*
X114897428Y-119264285D02*
X115183142Y-119264285D01*
X115004571Y-119014285D02*
X115004571Y-119657142D01*
X115040285Y-119728571D01*
X115111714Y-119764285D01*
X115183142Y-119764285D01*
X115754571Y-119728571D02*
X115683142Y-119764285D01*
X115540285Y-119764285D01*
X115468857Y-119728571D01*
X115433142Y-119692857D01*
X115397428Y-119621428D01*
X115397428Y-119407142D01*
X115433142Y-119335714D01*
X115468857Y-119300000D01*
X115540285Y-119264285D01*
X115683142Y-119264285D01*
X115754571Y-119300000D01*
X116076000Y-119764285D02*
X116076000Y-119014285D01*
X116397428Y-119764285D02*
X116397428Y-119371428D01*
X116361714Y-119300000D01*
X116290285Y-119264285D01*
X116183142Y-119264285D01*
X116111714Y-119300000D01*
X116076000Y-119335714D01*
X58682142Y-101446428D02*
X58789285Y-101482142D01*
X58825000Y-101517857D01*
X58860714Y-101589285D01*
X58860714Y-101696428D01*
X58825000Y-101767857D01*
X58789285Y-101803571D01*
X58717857Y-101839285D01*
X58432142Y-101839285D01*
X58432142Y-101089285D01*
X58682142Y-101089285D01*
X58753571Y-101125000D01*
X58789285Y-101160714D01*
X58825000Y-101232142D01*
X58825000Y-101303571D01*
X58789285Y-101375000D01*
X58753571Y-101410714D01*
X58682142Y-101446428D01*
X58432142Y-101446428D01*
X59325000Y-101089285D02*
X59467857Y-101089285D01*
X59539285Y-101125000D01*
X59610714Y-101196428D01*
X59646428Y-101339285D01*
X59646428Y-101589285D01*
X59610714Y-101732142D01*
X59539285Y-101803571D01*
X59467857Y-101839285D01*
X59325000Y-101839285D01*
X59253571Y-101803571D01*
X59182142Y-101732142D01*
X59146428Y-101589285D01*
X59146428Y-101339285D01*
X59182142Y-101196428D01*
X59253571Y-101125000D01*
X59325000Y-101089285D01*
X60110714Y-101089285D02*
X60253571Y-101089285D01*
X60325000Y-101125000D01*
X60396428Y-101196428D01*
X60432142Y-101339285D01*
X60432142Y-101589285D01*
X60396428Y-101732142D01*
X60325000Y-101803571D01*
X60253571Y-101839285D01*
X60110714Y-101839285D01*
X60039285Y-101803571D01*
X59967857Y-101732142D01*
X59932142Y-101589285D01*
X59932142Y-101339285D01*
X59967857Y-101196428D01*
X60039285Y-101125000D01*
X60110714Y-101089285D01*
X60646428Y-101089285D02*
X61075000Y-101089285D01*
X60860714Y-101839285D02*
X60860714Y-101089285D01*
X63843714Y-116514761D02*
X63748476Y-116562380D01*
X63558000Y-116562380D01*
X63462761Y-116514761D01*
X63415142Y-116467142D01*
X63367523Y-116371904D01*
X63367523Y-116086190D01*
X63415142Y-115990952D01*
X63462761Y-115943333D01*
X63558000Y-115895714D01*
X63748476Y-115895714D01*
X63843714Y-115943333D01*
X64272285Y-116562380D02*
X64272285Y-115562380D01*
X64700857Y-116562380D02*
X64700857Y-116038571D01*
X64653238Y-115943333D01*
X64558000Y-115895714D01*
X64415142Y-115895714D01*
X64319904Y-115943333D01*
X64272285Y-115990952D01*
X63772285Y-117267619D02*
X63819904Y-117220000D01*
X63915142Y-117172380D01*
X64153238Y-117172380D01*
X64248476Y-117220000D01*
X64296095Y-117267619D01*
X64343714Y-117362857D01*
X64343714Y-117458095D01*
X64296095Y-117600952D01*
X63724666Y-118172380D01*
X64343714Y-118172380D01*
D14*
X130371428Y-105814285D02*
X130371428Y-105480952D01*
X129847619Y-105480952D02*
X130847619Y-105480952D01*
X130847619Y-105957142D01*
X129895238Y-106719047D02*
X129847619Y-106623809D01*
X129847619Y-106433333D01*
X129895238Y-106338095D01*
X129990476Y-106290476D01*
X130371428Y-106290476D01*
X130466666Y-106338095D01*
X130514285Y-106433333D01*
X130514285Y-106623809D01*
X130466666Y-106719047D01*
X130371428Y-106766666D01*
X130276190Y-106766666D01*
X130180952Y-106290476D01*
X130514285Y-107195238D02*
X129847619Y-107195238D01*
X130419047Y-107195238D02*
X130466666Y-107242857D01*
X130514285Y-107338095D01*
X130514285Y-107480952D01*
X130466666Y-107576190D01*
X130371428Y-107623809D01*
X129847619Y-107623809D01*
X129847619Y-108100000D02*
X130514285Y-108100000D01*
X130847619Y-108100000D02*
X130800000Y-108052380D01*
X130752380Y-108100000D01*
X130800000Y-108147619D01*
X130847619Y-108100000D01*
X130752380Y-108100000D01*
X129847619Y-108576190D02*
X130847619Y-108576190D01*
X130228571Y-108671428D02*
X129847619Y-108957142D01*
X130514285Y-108957142D02*
X130133333Y-108576190D01*
X129895238Y-109338095D02*
X129847619Y-109433333D01*
X129847619Y-109623809D01*
X129895238Y-109719047D01*
X129990476Y-109766666D01*
X130038095Y-109766666D01*
X130133333Y-109719047D01*
X130180952Y-109623809D01*
X130180952Y-109480952D01*
X130228571Y-109385714D01*
X130323809Y-109338095D01*
X130371428Y-109338095D01*
X130466666Y-109385714D01*
X130514285Y-109480952D01*
X130514285Y-109623809D01*
X130466666Y-109719047D01*
X130847619Y-110814285D02*
X129847619Y-111147619D01*
X130847619Y-111480952D01*
X130847619Y-112004761D02*
X130847619Y-112100000D01*
X130800000Y-112195238D01*
X130752380Y-112242857D01*
X130657142Y-112290476D01*
X130466666Y-112338095D01*
X130228571Y-112338095D01*
X130038095Y-112290476D01*
X129942857Y-112242857D01*
X129895238Y-112195238D01*
X129847619Y-112100000D01*
X129847619Y-112004761D01*
X129895238Y-111909523D01*
X129942857Y-111861904D01*
X130038095Y-111814285D01*
X130228571Y-111766666D01*
X130466666Y-111766666D01*
X130657142Y-111814285D01*
X130752380Y-111861904D01*
X130800000Y-111909523D01*
X130847619Y-112004761D01*
X129942857Y-112766666D02*
X129895238Y-112814285D01*
X129847619Y-112766666D01*
X129895238Y-112719047D01*
X129942857Y-112766666D01*
X129847619Y-112766666D01*
X130847619Y-113719047D02*
X130847619Y-113242857D01*
X130371428Y-113195238D01*
X130419047Y-113242857D01*
X130466666Y-113338095D01*
X130466666Y-113576190D01*
X130419047Y-113671428D01*
X130371428Y-113719047D01*
X130276190Y-113766666D01*
X130038095Y-113766666D01*
X129942857Y-113719047D01*
X129895238Y-113671428D01*
X129847619Y-113576190D01*
X129847619Y-113338095D01*
X129895238Y-113242857D01*
X129942857Y-113195238D01*
D10*
%TO.C,C3*%
X109644252Y-105640000D02*
X109121748Y-105640000D01*
X109644252Y-107110000D02*
X109121748Y-107110000D01*
%TO.C,R10*%
X112303000Y-105347936D02*
X112303000Y-105802064D01*
X113773000Y-105347936D02*
X113773000Y-105802064D01*
%TO.C,C11*%
X72463000Y-111548748D02*
X72463000Y-112071252D01*
X73933000Y-111548748D02*
X73933000Y-112071252D01*
%TO.C,D3*%
X107933000Y-120075000D02*
X111233000Y-120075000D01*
X107933000Y-120075000D02*
X107933000Y-114675000D01*
X111233000Y-120075000D02*
X111233000Y-114675000D01*
%TO.C,C5*%
X109649252Y-104785000D02*
X109126748Y-104785000D01*
X109649252Y-103315000D02*
X109126748Y-103315000D01*
%TO.C,R20*%
X105833000Y-112067064D02*
X105833000Y-111612936D01*
X104363000Y-112067064D02*
X104363000Y-111612936D01*
%TO.C,U2*%
X126223000Y-113930000D02*
X126223000Y-110980000D01*
X123003000Y-112130000D02*
X123003000Y-113930000D01*
%TO.C,U5*%
X100323000Y-103775000D02*
X100323000Y-101825000D01*
X105443000Y-103775000D02*
X105443000Y-100325000D01*
X105443000Y-103775000D02*
X105443000Y-105725000D01*
X100323000Y-103775000D02*
X100323000Y-105725000D01*
%TO.C,R18*%
X121002564Y-112749000D02*
X120548436Y-112749000D01*
X121002564Y-111279000D02*
X120548436Y-111279000D01*
%TO.C,D2*%
X112078000Y-103510000D02*
X113998000Y-103510000D01*
X112078000Y-100650000D02*
X112078000Y-103510000D01*
X113998000Y-103510000D02*
X113998000Y-100650000D01*
%TO.C,J2*%
X52578000Y-108408000D02*
X53908000Y-108408000D01*
X51248000Y-111008000D02*
X51248000Y-118688000D01*
X53908000Y-111008000D02*
X53908000Y-118688000D01*
X51248000Y-111008000D02*
X53908000Y-111008000D01*
X51248000Y-118688000D02*
X53908000Y-118688000D01*
X53908000Y-108408000D02*
X53908000Y-109738000D01*
%TO.C,C7*%
X97946748Y-105835000D02*
X98469252Y-105835000D01*
X97946748Y-104365000D02*
X98469252Y-104365000D01*
%TO.C,C12*%
X97946748Y-108455000D02*
X98469252Y-108455000D01*
X97946748Y-109925000D02*
X98469252Y-109925000D01*
%TO.C,R1*%
X71723000Y-112074564D02*
X71723000Y-111620436D01*
X70253000Y-112074564D02*
X70253000Y-111620436D01*
%TO.C,R4*%
X56107000Y-113257064D02*
X56107000Y-112802936D01*
X54637000Y-113257064D02*
X54637000Y-112802936D01*
%TO.C,R21*%
X102355064Y-108915000D02*
X101900936Y-108915000D01*
X102355064Y-110385000D02*
X101900936Y-110385000D01*
%TO.C,C4*%
X125232748Y-118391000D02*
X125755252Y-118391000D01*
X125232748Y-119861000D02*
X125755252Y-119861000D01*
%TO.C,U4*%
X95288000Y-119675000D02*
X77288000Y-119675000D01*
X95288000Y-99675000D02*
X95288000Y-99925000D01*
X77288000Y-99925000D02*
X77288000Y-99675000D01*
X77288000Y-113675000D02*
X95238000Y-113675000D01*
X77288000Y-119675000D02*
X77288000Y-113175000D01*
X77288000Y-99675000D02*
X95288000Y-99675000D01*
X95288000Y-119675000D02*
X95288000Y-113175000D01*
%TO.C,C6*%
X106049252Y-117829000D02*
X105526748Y-117829000D01*
X106049252Y-116359000D02*
X105526748Y-116359000D01*
%TO.C,R5*%
X125103000Y-108172936D02*
X125103000Y-108627064D01*
X126573000Y-108172936D02*
X126573000Y-108627064D01*
%TO.C,NTC3*%
X62673000Y-116895000D02*
X62673000Y-114295000D01*
X61343000Y-119495000D02*
X60013000Y-119495000D01*
X62673000Y-116895000D02*
X60013000Y-116895000D01*
X60013000Y-119495000D02*
X60013000Y-118165000D01*
X62673000Y-114295000D02*
X60013000Y-114295000D01*
X60013000Y-116895000D02*
X60013000Y-114295000D01*
%TO.C,R6*%
X124498000Y-108172936D02*
X124498000Y-108627064D01*
X123028000Y-108172936D02*
X123028000Y-108627064D01*
%TO.C,NTC2*%
X68043000Y-116895000D02*
X68043000Y-114295000D01*
X68043000Y-116895000D02*
X65383000Y-116895000D01*
X65383000Y-116895000D02*
X65383000Y-114295000D01*
X66713000Y-119495000D02*
X65383000Y-119495000D01*
X68043000Y-114295000D02*
X65383000Y-114295000D01*
X65383000Y-119495000D02*
X65383000Y-118165000D01*
%TO.C,C1*%
X65219000Y-102115252D02*
X65219000Y-101592748D01*
X63749000Y-102115252D02*
X63749000Y-101592748D01*
%TO.C,SW3*%
X56400000Y-107514000D02*
X50280000Y-107514000D01*
X50280000Y-107514000D02*
X50280000Y-103814000D01*
X56400000Y-103814000D02*
X56400000Y-107514000D01*
X50280000Y-103814000D02*
X56400000Y-103814000D01*
%TO.C,U1*%
X113328000Y-111350000D02*
X113328000Y-109400000D01*
X118448000Y-111350000D02*
X118448000Y-109400000D01*
X118448000Y-111350000D02*
X118448000Y-113300000D01*
X113328000Y-111350000D02*
X113328000Y-114800000D01*
%TO.C,R15*%
X68099000Y-102081064D02*
X68099000Y-101626936D01*
X69569000Y-102081064D02*
X69569000Y-101626936D01*
%TO.C,U3*%
X122278000Y-117550000D02*
X122278000Y-115750000D01*
X119058000Y-115750000D02*
X119058000Y-118700000D01*
%TO.C,R8*%
X97910936Y-101765000D02*
X98365064Y-101765000D01*
X97910936Y-100295000D02*
X98365064Y-100295000D01*
%TO.C,R14*%
X56107000Y-117067064D02*
X56107000Y-116612936D01*
X54637000Y-117067064D02*
X54637000Y-116612936D01*
%TO.C,U6*%
X103398000Y-117400000D02*
X103398000Y-113640000D01*
X96578000Y-119650000D02*
X96578000Y-113640000D01*
X96578000Y-113640000D02*
X97838000Y-113640000D01*
X103398000Y-113640000D02*
X102138000Y-113640000D01*
%TO.C,C2*%
X120476748Y-107215000D02*
X120999252Y-107215000D01*
X120476748Y-108685000D02*
X120999252Y-108685000D01*
%TO.C,SW1*%
X117177000Y-116018000D02*
X117177000Y-117348000D01*
X114577000Y-116018000D02*
X111977000Y-116018000D01*
X115847000Y-116018000D02*
X117177000Y-116018000D01*
X111977000Y-116018000D02*
X111977000Y-118678000D01*
X114577000Y-118678000D02*
X111977000Y-118678000D01*
X114577000Y-116018000D02*
X114577000Y-118678000D01*
%TO.C,J1*%
X118188000Y-99150000D02*
X118188000Y-97250000D01*
X127588000Y-103050000D02*
X127588000Y-101050000D01*
X127588000Y-99150000D02*
X127588000Y-97250000D01*
X118188000Y-103050000D02*
X118188000Y-101050000D01*
X127588000Y-97250000D02*
X118188000Y-97250000D01*
%TO.C,R16*%
X65949000Y-101626936D02*
X65949000Y-102081064D01*
X67419000Y-101626936D02*
X67419000Y-102081064D01*
%TO.C,SW2*%
X56435000Y-103196000D02*
X50315000Y-103196000D01*
X50315000Y-99496000D02*
X56435000Y-99496000D01*
X50315000Y-103196000D02*
X50315000Y-99496000D01*
X56435000Y-99496000D02*
X56435000Y-103196000D01*
%TO.C,C8*%
X97946748Y-106415000D02*
X98469252Y-106415000D01*
X97946748Y-107885000D02*
X98469252Y-107885000D01*
%TO.C,C10*%
X68563000Y-111548748D02*
X68563000Y-112071252D01*
X67093000Y-111548748D02*
X67093000Y-112071252D01*
%TO.C,R9*%
X114403000Y-105322936D02*
X114403000Y-105777064D01*
X115873000Y-105322936D02*
X115873000Y-105777064D01*
%TO.C,R3*%
X60983000Y-112037064D02*
X60983000Y-111582936D01*
X59513000Y-112037064D02*
X59513000Y-111582936D01*
%TO.C,C9*%
X63193000Y-111548748D02*
X63193000Y-112071252D01*
X61723000Y-111548748D02*
X61723000Y-112071252D01*
%TO.C,NTC1*%
X72083000Y-119495000D02*
X70753000Y-119495000D01*
X73413000Y-114295000D02*
X70753000Y-114295000D01*
X73413000Y-116895000D02*
X70753000Y-116895000D01*
X73413000Y-116895000D02*
X73413000Y-114295000D01*
X70753000Y-116895000D02*
X70753000Y-114295000D01*
X70753000Y-119495000D02*
X70753000Y-118165000D01*
%TO.C,D4*%
X75863000Y-107600000D02*
X75863000Y-100300000D01*
X75863000Y-100300000D02*
X74713000Y-100300000D01*
X70363000Y-107600000D02*
X70363000Y-100300000D01*
%TO.C,R17*%
X109615064Y-102485000D02*
X109160936Y-102485000D01*
X109615064Y-101015000D02*
X109160936Y-101015000D01*
%TO.C,R7*%
X98365064Y-102315000D02*
X97910936Y-102315000D01*
X98365064Y-103785000D02*
X97910936Y-103785000D01*
%TO.C,R12*%
X121002564Y-110717000D02*
X120548436Y-110717000D01*
X121002564Y-109247000D02*
X120548436Y-109247000D01*
%TO.C,R2*%
X64883000Y-112074564D02*
X64883000Y-111620436D01*
X66353000Y-112074564D02*
X66353000Y-111620436D01*
%TO.C,D1*%
X114178000Y-103510000D02*
X116098000Y-103510000D01*
X116098000Y-103510000D02*
X116098000Y-100650000D01*
X114178000Y-100650000D02*
X114178000Y-103510000D01*
%TO.C,R19*%
X106010064Y-114040000D02*
X105555936Y-114040000D01*
X106010064Y-115510000D02*
X105555936Y-115510000D01*
%TO.C,R13*%
X125721064Y-117829000D02*
X125266936Y-117829000D01*
X125721064Y-116359000D02*
X125266936Y-116359000D01*
%TD*%
M02*
