M48
; DRILL file {KiCad (6.0.8)} date Sat Apr 29 21:48:06 2023
; FORMAT={-:-/ absolute / inch / decimal}
; #@! TF.CreationDate,2023-04-29T21:48:06+02:00
; #@! TF.GenerationSoftware,Kicad,Pcbnew,(6.0.8)
; #@! TF.FileFunction,Plated,1,2,PTH
FMAT,2
INCH
; #@! TA.AperFunction,Plated,PTH,ComponentDrill
T1C0.0118
; #@! TA.AperFunction,Plated,PTH,ViaDrill
T2C0.0157
; #@! TA.AperFunction,Plated,PTH,ComponentDrill
T3C0.0236
; #@! TA.AperFunction,Plated,PTH,ComponentDrill
T4C0.0394
%
G90
G05
T1
X4.0111Y-4.06
X4.0111Y-4.1112
X4.0505Y-4.06
X4.0505Y-4.1112
X4.0899Y-4.06
X4.0899Y-4.1112
X4.5231Y-4.3583
X4.5231Y-4.4094
X4.5625Y-4.3583
X4.5625Y-4.4094
X4.6019Y-4.3583
X4.6019Y-4.4094
T2
X1.7795Y-4.5
X2.305Y-4.285
X2.305Y-4.375
X2.48Y-4.05
X2.52Y-4.375
X2.73Y-4.295
X2.73Y-4.375
X2.885Y-4.095
X3.235Y-4.03
X3.237Y-3.965
X3.335Y-4.1
X3.56Y-3.995
X3.56Y-4.035
X3.565Y-4.335
X3.625Y-4.24
X3.67Y-4.24
X3.84Y-4.52
X3.84Y-4.58
X3.96Y-4.08
X3.96Y-4.26
X4.0Y-4.26
X4.14Y-4.27
X4.19Y-3.98
X4.19Y-4.05
X4.19Y-4.12
X4.455Y-4.385
X4.455Y-4.425
X4.54Y-4.545
X4.6375Y-4.21
X4.655Y-4.405
X4.655Y-4.565
X4.655Y-4.61
X4.8086Y-4.055
X4.83Y-4.65
X4.83Y-4.7
X4.84Y-4.57
X4.8676Y-4.055
X5.0315Y-4.5157
T4
X2.07Y-4.3204
X2.07Y-4.4204
X2.07Y-4.5204
X2.07Y-4.6204
X2.4151Y-4.5522
X2.4151Y-4.6522
X2.6265Y-4.5522
X2.6265Y-4.6522
X2.8379Y-4.5522
X2.8379Y-4.6522
X4.4609Y-4.62
X4.5609Y-4.62
T3
G00X4.668Y-3.9528
M15
G01X4.668Y-3.9291
M16
G05
G00X4.668Y-4.1272
M15
G01X4.668Y-4.0839
M16
G05
G00X5.0082Y-3.9528
M15
G01X5.0082Y-3.9291
M16
G05
G00X5.0082Y-4.1272
M15
G01X5.0082Y-4.0839
M16
G05
T0
M30
